/* XPM */
static char *d2d22c286aca460b9546bc5094b1dd98zroxl1jDHi5Xu2Bp[] = {
/* columns rows colors chars-per-pixel */
"64 64 152 2 ",
"   c None",
".  c #010101",
"X  c #444444",
"o  c #5A5A5A",
"O  c #0277BD",
"+  c #0479BE",
"@  c #087BBF",
"#  c #0B7DC1",
"$  c #0F80C3",
"%  c #1383C5",
"&  c #1887C7",
"*  c #1F88C7",
"=  c #1987C8",
"-  c #1C8AC9",
";  c #2089C7",
":  c #228ECC",
">  c #298FCB",
",  c #2591CE",
"<  c #2993CE",
"1  c #3196CE",
"2  c #3799CE",
"3  c #2C96D1",
"4  c #2F98D2",
"5  c #349BD5",
"6  c #399ED5",
"7  c #3AA0D7",
"8  c #3DA2D9",
"9  c #429ED3",
"0  c #44A1D5",
"q  c #42A6DC",
"w  c #4AA5D8",
"e  c #46A9DD",
"r  c #49ABDF",
"t  c #54ABDC",
"y  c #59ADDC",
"u  c #4DAEE1",
"i  c #4EAFE1",
"p  c #4EAEE1",
"a  c #4FAFE2",
"s  c #4CADE0",
"d  c #4CADE1",
"f  c #4FB0E1",
"g  c #4FB0E2",
"h  c #4FB0E2",
"j  c #50B0E2",
"k  c #51B1E2",
"l  c #51B1E3",
"z  c #50B1E3",
"x  c #52B1E3",
"c  c #52B2E3",
"v  c #53B2E4",
"b  c #53B3E4",
"n  c #54B3E4",
"m  c #55B4E5",
"M  c #54B4E5",
"N  c #56B4E5",
"B  c #56B5E5",
"V  c #57B5E6",
"C  c #56B5E6",
"Z  c #57B6E6",
"A  c #54B3E4",
"S  c #5CB2E1",
"D  c #58B6E5",
"F  c #58B6E6",
"G  c #59B7E7",
"H  c #5AB7E7",
"J  c #59B7E7",
"K  c #5AB8E7",
"L  c #5BB8E7",
"P  c #5AB8E7",
"I  c #5BB8E8",
"U  c #5BB9E8",
"Y  c #5CB9E8",
"T  c #5DBAE9",
"R  c #5EBAE9",
"E  c #5FBBE9",
"W  c #5FBBEA",
"Q  c #5DBAE9",
"!  c #66B5E0",
"~  c #69B9E4",
"^  c #60BCEA",
"/  c #61BDEB",
"(  c #62BDEB",
")  c #62BEEB",
"_  c #63BEEC",
"`  c #65BFEC",
"'  c #62BDEB",
"]  c #69BFEA",
"[  c #72BDE5",
"{  c #72BFE7",
"}  c #74BEE6",
"|  c #66C0EC",
" . c #67C1ED",
".. c #65C0EC",
"X. c #66C0ED",
"o. c #6CC5EF",
"O. c #6AC3EE",
"+. c #7AC1E7",
"@. c #75C5EE",
"#. c #7CC2E8",
"$. c #7CC9EF",
"%. c #6DC5F0",
"&. c #6DC6F1",
"*. c #70C7F2",
"=. c #74CAF3",
"-. c #73CAF3",
";. c #7BCFF7",
":. c #79CEF6",
">. c #7BD0F7",
",. c #959595",
"<. c gray63",
"1. c #A9A9A9",
"2. c #B4B4B4",
"3. c #82C7EA",
"4. c #86C9EC",
"5. c #80C9EE",
"6. c #88CBEE",
"7. c #8ACCED",
"8. c #8CCDEE",
"9. c #91CFEF",
"0. c #83CEF2",
"q. c #88CEF0",
"w. c #8CD2F4",
"e. c #94D2F1",
"r. c #99D5F3",
"t. c #9CD9F6",
"y. c #A1D9F5",
"u. c #A3DBF6",
"i. c #A6DDF7",
"p. c #A0D8F3",
"a. c #AADDF6",
"s. c #A6DEF8",
"d. c #AADFF9",
"f. c #A9DFF8",
"g. c #B2DFF5",
"h. c #ADE2FA",
"j. c #B1E0F7",
"k. c #B0E3FB",
"l. c #B1E3FB",
"z. c #B2E4FB",
"x. c #B3E5FC",
"c. c #B3E5FC",
"v. c #BEE5F8",
"b. c gray84",
"n. c gray86",
"m. c #C1E5F7",
"M. c #CDEBF9",
"N. c #D1EBF9",
"B. c #DEF2FB",
"V. c gray90",
"C. c #E9E9E9",
"Z. c #FEFFFF",
/* pixels */
"                                                                                                                                ",
"                                                                                                                                ",
"                                                            O # O O +                                                           ",
"                                                  # O O O # # # # # + + O O O O +                                               ",
"                                            # # O % - < 4 5 4 4 3 3 3 , : = % # + + + +                                         ",
"                                        # # # , 6 6 6 6 5 5 5 4 3 3 < , , , : : - = # + O O                                     ",
"                                      # # 3 6 8 8 8 7 7 6 5 4 4 3 3 3 , < : , : - - - = % + + +                                 ",
"                                  O O : q q s 8 8 8 8 7 7 5 5 5 4 4 3 3 , , , : : - - - = % $ # O O                             ",
"        O                       # # 5 s s 8 s 8 q 8 8 7 7 5 5 5 4 4 4 3 3 , : : : - - - - & % % # O O                           ",
"      O O                     O # s d s s s 8 s q 8 8 8 7 7 5 5 4 4 4 3 3 , , , : : - - = = & % % $ # O O                       ",
"      O + O                 + $ d z u u s s s 8 q 8 8 8 7 7 5 5 5 4 4 3 3 , , , , : : - - = = % % % $ # O O                     ",
"      O G + O             + # s z z z u s 8 8 s q q 8 8 7 7 7 5 5 4 4 4 3 3 3 , , : : - = = = = % % % $ # + O                   ",
"    O $ ;.q O           + + r m z M z u d d e e e q q 8 8 8 7 5 5 5 5 4 3 3 , , , : 3 w t t 9 ; % % % $ # # + O                 ",
"    + < =.o., O         O 5 G m M M z z d d d e e q q q 8 8 7 7 5 5 5 4 4 3 3 3 8 q.x.x.x.x.l.l.8.t % % % # # O O               ",
"    O 8 o. .Y - O     + = P P m M M z z d d d e e e q 8 8 8 7 7 6 5 5 4 4 3 3 ~ l.x.x.d.y.i.l.x.x.x.u.w % # # # O O             ",
"    O r  .Y G s : O O + s Y P G C M z z d d d e d e q q 8 8 8 7 5 7 5 4 4 4 { h.} 9 # + O O @ > y e.x.x.[ % $ # + O             ",
"    O r E G k r q < + , E U U G G m v k j s s s s 8 q q q 8 8 8 7 6 5 5 5 S 4.* O O +         O O O < 8.x.} # # # O O           ",
"    O 8 G k r q 7 , + h / Y U U G V m m v s s s s s s 8 q 8 8 8 7 6 6 5 6 y + +                     O + 0 d.0 % # @ O           ",
"    O 5 k r q 8 5 # - E W E E U G G m m k g s s s 8 q s q q 8 8 7 7 5 5 < O +                           O ; 4.$ # # + O         ",
"    O - r q 8 5 , + s X./ / Y U U G m m m v v s s s s 8 q q 8 8 8 7 6 , O                                 + % > # # # O         ",
"    O # e 8 5 4 $ $ X.E W E W T Y G G m v k k s s s s s e q q 8 8 8 5 # +                                   O + $ # # + +       ",
"      + 5 6 4 < # 3 X.X.X.X.W T Y L G m m v v k s s s e e q q q 8 8 = #                                       O # # # # O       ",
"      + - 4 < - + s X.X.X.W E W Y Y G G m M v g s s r r e q q q 8 6 #                                           O # # # O       ",
"      O @ < - % +  . .X.X.X.X.W Y Y U U m m v k k s r r r e e q q : O                                           + + # # O O     ",
"        O % = @ - o.O. .X.) ) W / Y Y Y G m m k v s s s r e e q q $ #                                             O # # # O     ",
"        O + % + 5 %.O.O.X.X.X.W / Y Y Y G m m k k g s s s e e q 7 O                                               O # $ + O     ",
"          O + O s %.o.O.O.X.X.W / E Y Y P G m m v h h u s r e q 5 O                     + O                       O # # + O     ",
"            + O U %.%.%. .X.X.X./ / E Y U U m m M h h a s r r e 8 # O O # + + O O O O # # O O                     O + $ + O     ",
"              + %.%.o.%.O. .X.X.` / W E U U G m M v g s s s s e s 8 , = # # # # % = , 3 4 @ +                     O + $ + O     ",
"            @ $ *.*.*.o.%.O.X.X. ./ W E U U G G M v v g s s r e q q s 8 7 7 7 6 6 5 5 4 : O                       O # % O       ",
"            @ % -.*.*.*.%.O. .X.` / / / Y Y U m m M M g v s s s s 8 8 8 8 8 7 7 6 5 5 4 # O                       O # # O       ",
"            @ - -.*.*.*.%.O.O.X. ./ / / / Y U G V m M v v s s s s s s s 8 8 8 8 6 5 5 $ O                         O % # O       ",
"            # - -.-.-.&.*.O.O.O.X.` ` / / Y Y U G m m v v s s s q s s 8 q 8 8 8 7 4 # +                           O % + +       ",
"            + : -.-.-.&.*.*.O.O.X.X.` / / ^ Y Y G G m m v v k s s q q q q 8 8 7 = O +                           O # % O         ",
"            # - -.-.-.*.*.o.O.O.%. .` / / / Y Y G G m m v v s s s s q s q 4 - # O @                             O & # O         ",
"            @ = :.-.-.-.*.o.*.o.X.X. .` / ^ / Y Y G G m v k k j s s q , $ # # #                               O # = + +         ",
"            # # :.>.-.-.o.o.*.o.%.X.X. ./ / / Y Y G G G m m j s s 8 + O #                                   + + = % O           ",
"              O -.-.-.-.-.-.*.o.%.X.X.X. ./ / ^ Y Y G G m m k k s 5 O                                     + + % : # +           ",
"              # X.-.-.:.-.*.*.*.%.%.%. . ./ / ^ Y Y G G m m v v v s # 2                             O O O O % , - +             ",
"              # u >.>.-.-.-.*.*.%.%.X.X.` ` ` / ^ Y L G G m v k j $.9 %                       + O O # % - , , , - O +           ",
"              + 4 >.:.:.-.*.*.*.&.%.X.X.X.X.W / / Y Y Y U V m v G h.#.+                     O + = < 3 < 3 , 3 : , $ O           ",
"              # $ :.:.:.:.-.-.*.&.%.%.%.%.X.X.X./ / Y Y U V m m $.l.a.+                 + + % 5 5 4 4 3 3 3 , : , - + +         ",
"                O / >.:.-.-.-.*.&.&.&.X.X.X.X.W / / Y Y U G V m t.x.x.* %             + O % : & $ $ # # # = : 3 , : % O         ",
"                # 5 >.:.:.:.-.*.*.*.%.%.%.X.X.X./ / / W U G G G l.x.x.2 +             O O O O + O # + # O O O = , , - O         ",
"                @ # -.:.:.-.-.-.*.*.%.%.O.X.X.X./ / / Y Y Y G ] x.x.x.9 +                                   + O = , : O +       ",
"                  + q >.:.:.:.-.-.*.*.%.%.O.%.*.4.@./ W Y Y L @.x.x.x.6 @                                     # O - : # +       ",
"                  # $ *.:.:.:.-.-.-.*.*.%.o.v.Z.Z.Z.g.^ ^ Y L $.x.x.x.> +                                       O + : % O       ",
"                    + 3 >.:.:.:.-.*.*.%.%.i.Z.1.o 2.Z.r.^ Y L $.x.x.l.#                                           O % % O       ",
"                      O s :.:.:.-.-.-.%.%.B.n.. . . C.M./ / Y :.x.x.9.+                                             O # O       ",
"                      # + Y :.:.-.-.-.*.-.B.b.. . . V.N./ Y Y $.x.x.! +                                             O O +       ",
"                        + + U :.:.-.-.-.*.l.Z.,.X <.Z.p./ ^ ^ o.x.x.9 *                                               O         ",
"                          # + s :.:.-.-.-.*.M.Z.Z.Z.m. .` / ^ / l.x.; 1                                                         ",
"                            # O 3 %.-.-.-.*.*.0.r.0. . ./ / / W s.x.% 9                                                         ",
"                                O # 8 %.-.-.*.%.%.O. . .`  ./ / w.x.% 6                                                         ",
"                                  # O # 4 G %.%.%.%. .O. ./ / / $.x.> >                                                         ",
"                                      # + + # , 8 k Y  . . ./ / ^ a.t %                                                         ",
"                                            # # O O O O # = s / ^ q.3.O                                                         ",
"                                                          + # m / ] a.@ 0                                                       ",
"                                                            O % m / 0.6 *                                                       ",
"                                                              O # e ^ t O                                                       ",
"                                                                # O - 4 O y                                                     ",
"                                                                    + + +                                                       ",
"                                                                                                                                ",
"                                                                                                                                "
};
