/* XPM */
static char *ef8cc10ae1c74c73e48b4cf1ef42d85eOAVGbi4h70DRqLVl[] = {
/* columns rows colors chars-per-pixel */
"64 64 125 2 ",
"   c None",
".  c #010101",
"X  c #444444",
"o  c #5A5A5A",
"O  c #0277BD",
"+  c #0479BE",
"@  c #087BBF",
"#  c #0B7DC1",
"$  c #0F80C3",
"%  c #1383C5",
"&  c #1887C7",
"*  c #1F88C7",
"=  c #1987C8",
"-  c #1C8AC9",
";  c #2089C7",
":  c #228ECC",
">  c #298FCB",
",  c #2591CE",
"<  c #2993CE",
"1  c #3196CE",
"2  c #3799CE",
"3  c #2C96D1",
"4  c #2F98D2",
"5  c #349BD5",
"6  c #399ED5",
"7  c #3AA0D7",
"8  c #3DA2D9",
"9  c #429ED3",
"0  c #44A1D5",
"q  c #42A6DC",
"w  c #4AA5D8",
"e  c #46A9DD",
"r  c #49ABDF",
"t  c #55ACDC",
"y  c #55AFDF",
"u  c #53AADB",
"i  c #5AADDB",
"p  c #58ADDC",
"a  c #4BACE0",
"s  c #4CADE0",
"d  c #4DAEE1",
"f  c #4EAFE1",
"g  c #4DAEE1",
"h  c #4FB0E2",
"j  c #4FB0E2",
"k  c #50B0E2",
"l  c #56B5E5",
"z  c #53B3E4",
"x  c #5CB2E1",
"c  c #58B5E5",
"v  c #59B7E6",
"b  c #5AB8E7",
"n  c #5DBAE9",
"m  c #66B5E0",
"M  c #69B9E4",
"N  c #61BCEA",
"B  c #60BCEA",
"V  c #62BDEB",
"C  c #65BFEB",
"Z  c #62BDEB",
"A  c #69BFEA",
"S  c #72BDE5",
"D  c #72BFE7",
"F  c #74BEE6",
"G  c #66C0ED",
"H  c #6AC3EE",
"J  c #7AC1E7",
"K  c #76C7EF",
"L  c #74C5EE",
"P  c #7CC2E8",
"I  c #7DC8EE",
"U  c #7CC9EF",
"Y  c #6DC6F0",
"T  c #70C7F2",
"R  c #73CAF3",
"E  c #79CEF6",
"W  c #7BD0F7",
"Q  c #959595",
"!  c gray63",
"~  c #A9A9A9",
"^  c #B4B4B4",
"/  c #82C7EA",
"(  c #80C9EE",
")  c #86C9EC",
"_  c #88CBEE",
"`  c #8ACCED",
"'  c #8CCDEE",
"]  c #91CFEF",
"[  c #80CCF1",
"{  c #85CFF3",
"}  c #88CEF0",
"|  c #89D0F3",
" . c #8FD3F4",
".. c #94D2F1",
"X. c #99D5F3",
"o. c #9CD9F6",
"O. c #A1D9F5",
"+. c #A3DBF6",
"@. c #A6DDF7",
"#. c #A0D8F3",
"$. c #AADDF6",
"%. c #A4DDF8",
"&. c #A7DEF8",
"*. c #A9DFF8",
"=. c #AADFF8",
"-. c #AADFF9",
";. c #B2DFF5",
":. c #ABE1FA",
">. c #AEE2FA",
",. c #B1E0F7",
"<. c #B0E3FB",
"1. c #B1E3FB",
"2. c #B1E4FB",
"3. c #B2E4FB",
"4. c #B3E5FC",
"5. c #BEE5F8",
"6. c gray84",
"7. c gray86",
"8. c #C1E5F7",
"9. c #CDEBF9",
"0. c #D1EBF9",
"q. c #DEF2FB",
"w. c gray90",
"e. c #E9E9E9",
"r. c #FEFFFF",
/* pixels */
"                                                                                                                                ",
"                                                                                                                                ",
"                                              O O O O O +                                                                       ",
"                                        O O O O O + + + O O O O O                       + O O + + O                             ",
"                                    O O + @ # # # $ # % % $ # # + O O +           O O O + # % % # O O                           ",
"                                O O + # # # # $ $ # # + + # # % % % # + O O   + O # % - : , : $ O O                             ",
"                            O O O # # # # $ # + O O O O O O O O + # % - % # O O % - : : , - + O                                 ",
"                          O O + # # $ # $ + O O                   O O # - : - - : , , , = O O                                   ",
"                        O O # # # # % > + O                           O + - : , , , , - O +                                     ",
"                      O + # # $ % 0 ) % O                               O O % , , , , O +                                       ",
"                    O O # # $ % F -.; O                                   O O , , , = O                                         ",
"                  O O # $ $ $ S 4.0 O                                       O - 3 3 $ O                                         ",
"                  O # $ % % w 3.' +                                         O % 4 3 # O                                         ",
"                O # $ $ % % +.3.< O                                         O # 4 4 # #                                         ",
"              + + $ % % % u 3...O                                             O , 4 $ +                                         ",
"              O # % % % % ' 4.i O                                             O = 5 $ +                                         ",
"            O # % % & % - >.4., O                                             + + 5 & +                                         ",
"            O $ % % = = 8 4.3.@                       O O                       O % : O                                         ",
"          O # % = = - - u 4.&.O                     O O # O +                     O & O                                         ",
"          O % = = - - - t 4.O.O                     O # 3 : # O                   O O O                                         ",
"        O + - - - - - - w 4.$.O                       O , 5 4 $ O                   O O                                         ",
"        O # - - - - - : < 1.4.% +                     # : 5 5 5 # +                                                             ",
"        O = - - - : : : : _ 4.6 O                     # - 5 5 6 3 O @                                                           ",
"      + O - : - : : : , , 0 <.J O                     # % 5 6 7 7 - O                                                           ",
"      O # : : - , , , , , 3 M >.* O                   O # 7 7 7 7 7 + #                                                         ",
"      O % - , , , , , , , 3 3 D ) O +                 # # 7 7 8 8 8 - O                                                         ",
"      O - , , , , 3 3 3 3 3 3 3 x i +                 O # 8 8 8 q 8 7 O                                                 i       ",
"      O , , , , , , 3 3 3 4 4 4 5 8 < O +             O # 8 8 q q q e % +           # + # + @                     0 * O O +     ",
"      + , < , 3 3 3 3 3 4 5 4 5 5 5 5 , # O           + % q q q q e q 3 O   2 % + + ; 2 9 9 > # + + ; 1 9 2 > # O @ 6 y 3 +     ",
"    + + , 3 3 3 3 3 4 4 3 5 5 5 5 5 6 6 5 - # # #     O , q q q e q r q + O @ 9 P -.3.3.1.4.4.3...m 9 ; % & > t / &.( B - +     ",
"    O # 3 3 3 3 4 4 5 4 5 5 5 6 5 6 6 7 7 8 6 , # O O # 8 q e e r a r a 8 5 r ( -.4.4.4.4.4.4.4.4.4.4.4.<.4.4.:.} C B e +       ",
"    O # 3 3 4 4 5 4 5 5 5 5 6 6 6 8 7 8 8 8 8 q q 8 5 7 e a a e r r r f f f k k c I o.1.4.4.4.4.4.4.4.3.%...R B Z Z z # #       ",
"    # # 4 4 4 5 5 5 5 5 6 5 6 6 7 7 8 8 8 q 8 q q q e q a a a a a a f f f k k z z z l v A L E ( I K H N n Z B Z Z v $ #         ",
"    # # 4 4 5 5 5 5 7 7 7 7 7 8 8 8 q 8 q 8 a 8 r q a q a a a d f f f k k z z z z l v v v v v n n n B N Z Z Z Z d # O           ",
"      # 5 5 5 5 5 7 7 7 7 7 8 8 8 q 8 q q q q a r r a a a a d h f k k z z z z z v v v b v n n n B B B N Z Z A G = #             ",
"      # 4 5 5 5 7 7 7 7 8 8 8 8 q q q q q a q a a r a a a a d h k z z z l z v v v b b n n n n B B C N N C C G G #               ",
"      # , 7 7 7 7 7 8 8 9 8 a 8 q q q a a a a q a a f a h h h h k l l v v v v v b n n n n B B ..9.0.#.C G G G G O               ",
"      # - 7 7 8 8 8 8 8 q q 8 a a q a q a a a a a a d k h h z l l l l v v v v n n n n n B B ,.r.e.w.r.8.G G G B O               ",
"      O # 8 8 8 8 8 q q q q q q a 8 a a a a d d d d z k z l l l l v v v v n n n n B B B B L r.^ . . ! r.[ G Y k O               ",
"        # 7 q 8 q q q q q q a r a a a a d d d d z k z z h l l v v v v v n n n B B B Z Z C } r.o . . X r.o.Y Y 8 O               ",
"        O : 8 q q q q q a a a a a a a f h h h h h z z z z v v v v v n n n n V n G V V G G T r.~ . . Q r.{ Y Y , +               ",
"        # # q q q a a q q a a a a a a h h z z z z l v v v v b n n n n n V n V V V G G G G H 5.r.7.6.r.9.Y T T # #               ",
"          O 3 q q q a a a a a a a h h z z z z l v l b b v b n n n B B B V G V V G G G H H H H :.q.q.1.T T T v O                 ",
"          # # a a a a g a a k d h h z z z z l l v b b b b n n n B B V V V V H V G H H H H H H Y Y Y T T R R 5 O                 ",
"            O , a a a d d k k k z z z v l v l v b b b n n n Z n V V V V H V V H H G H H Y Y T T T T R R R Y # #                 ",
"              O 5 a g d k z k k z l z v l v v b n n n n n n G n V V V H V Y H H H H Y Y Y T T T T R R R R 8 O                   ",
"              + # a d d k l z l z v v v v b n n n n Z n G n Z G V Y V V Y H H H Y Y Y T T T R R R R R E Y # #                   ",
"                # # g z z l l l v v v b b n n n n n G n G G G G Y V Y H Y H Y Y Y T T T T T R R R E R E 3 O                     ",
"                  O $ f l l l v b b b n n n n Z B Z Z G G G G H G H H H H Y T T Y R R R R R R E E R W f O                       ",
"                    + # e l b b b n n n n Z Z n G Z Z G G G G G Y H Y Y T Y T T R R R R R R E R W E b + #                       ",
"                      O # 5 b n n n n B Z Z Z Z Z G G G G G Y G H Y Y Y T T R R R R R R W R E E W n # +                         ",
"                        O + % f n n G n G Z G G G G Y G Y G Y Y Y T T T T R R R R R E R W W E E f + +                           ",
"                            O O , z n G G G G G G G G Y Y Y T T Y T T R R R R R R E E E E W T 3 O #                             ",
"                              + O O - a G G G G Y Y Y Y Y Y T T T R R R E R R E W E W W R q # +                                 ",
"                              O < , $ O $ 3 j G G Y Y Y Y Y T T R R R R E R E E E E Z 6 # O #                                   ",
"                            O : q 7 5 < % O O + - 5 a n Y T R R R R E E E R Z a 4 $ O # @                                       ",
"                          O - h r q 8 5 1 < - $ @ O O O O # % - - : - = $ O O O + #                                             ",
"                      O O , n l z r q 8 7 4 < , - % + +   # @ @ # # # # #                                                       ",
"                    O + q H G n v k r q 7 5 4 < % O O                                                                           ",
"                O O + v W R H G n v k r q 7 - + O O                                                                             ",
"                  O O O % < 8 r r q 5 * # O O O                                                                                 ",
"                        O O O O O O O O O                                                                                       ",
"                                                                                                                                ",
"                                                                                                                                "
};
