/* XPM */
static char *fa0db379db5f4085dfb63ae5b817a5106EUAPWIwoh2SZtaT[] = {
/* columns rows colors chars-per-pixel */
"64 64 120 2 ",
"   c None",
".  c #010101",
"X  c #444444",
"o  c #5A5A5A",
"O  c #0277BD",
"+  c #0479BE",
"@  c #087BBF",
"#  c #0B7DC1",
"$  c #107FC2",
"%  c #0F80C3",
"&  c #1383C5",
"*  c #1887C7",
"=  c #1F89C7",
"-  c #1987C8",
";  c #1C8AC9",
":  c #2089C7",
">  c #228ECC",
",  c #298FCB",
"<  c #2591CE",
"1  c #2993CE",
"2  c #3295CE",
"3  c #3798CF",
"4  c #2C96D1",
"5  c #2F98D2",
"6  c #349BD5",
"7  c #399ED5",
"8  c #3AA0D7",
"9  c #3DA2D9",
"0  c #429ED3",
"q  c #44A2D6",
"w  c #42A6DC",
"e  c #4AA5D8",
"r  c #46A9DD",
"t  c #49ABDF",
"y  c #54ABDC",
"u  c #59ADDC",
"i  c #4DAEE1",
"p  c #4FB0E2",
"a  c #53B3E4",
"s  c #59B6E6",
"d  c #5AB8E7",
"f  c #5DBAE9",
"g  c #66B5E0",
"h  c #69B9E4",
"j  c #62BDEB",
"k  c #69BFEA",
"l  c #73BEE6",
"z  c #66C0ED",
"x  c #6AC3EE",
"c  c #7AC1E7",
"v  c #75C5EE",
"b  c #7CC2E8",
"n  c #7CC9EF",
"m  c #6DC6F0",
"M  c #70C7F2",
"N  c #71C8F2",
"B  c #72C9F2",
"V  c #72C9F3",
"C  c #73C9F3",
"Z  c #72C8F2",
"A  c #73CAF3",
"S  c #74CAF3",
"D  c #74CAF4",
"F  c #74CBF4",
"G  c #75CBF4",
"H  c #75CCF4",
"J  c #76CCF4",
"K  c #76CCF5",
"L  c #77CCF5",
"P  c #77CDF5",
"I  c #7FCBF1",
"U  c #78CDF5",
"Y  c #78CDF6",
"T  c #78CEF6",
"R  c #79CEF6",
"E  c #7ACFF6",
"W  c #7ACFF7",
"Q  c #7BCFF7",
"!  c #7ACEF6",
"~  c #7BD0F7",
"^  c #959595",
"/  c gray63",
"(  c #A9A9A9",
")  c #B4B4B4",
"_  c #82C7EA",
"`  c #84C9ED",
"'  c #8ACCEE",
"]  c #91CFEF",
"[  c #85CFF3",
"{  c #80CCF1",
"}  c #88CEF0",
"|  c #8CD2F4",
" . c #94D2F1",
".. c #98D4F2",
"X. c #9AD6F4",
"o. c #9CD9F6",
"O. c #A0D8F3",
"+. c #A3DBF6",
"@. c #AADDF6",
"#. c #A6DEF8",
"$. c #AADFF8",
"%. c #B2DFF5",
"&. c #ADE2FA",
"*. c #B1E0F7",
"=. c #B3E5FC",
"-. c #BEE5F8",
";. c gray84",
":. c gray86",
">. c #C1E5F7",
",. c #CEEAF8",
"<. c #CCEBFA",
"1. c #D1EBF9",
"2. c #DCF1FB",
"3. c #DFF2FB",
"4. c gray90",
"5. c #E9E9E9",
"6. c #FCFDFE",
"7. c #FDFEFE",
"8. c #FEFEFE",
"9. c white",
/* pixels */
"                                                                                                                                ",
"                                                                                                                                ",
"                                                                                      O O O O O O + O O                         ",
"                                                                                O O O # ; 6 9 t t 9 1 % O O O                   ",
"                                                                            O O @ ; 6 r t a s f z x J ~ d @ O O                 ",
"                                                                          O + & < 6 6 9 w t p s j z x 9 + O                     ",
"                                                      # @ # + @ @ @ @   + + & - > < 6 6 9 w i i s d < + O                       ",
"                                            @ + O O O # * ; ; > ; & # O O + + @ & ; < 5 6 9 w i i = O                           ",
"                                      # O O & 5 i j F Y Y D D V B V B m d i 6 - # O # & < 6 9 w ; O                             ",
"                                  # O # 6 j Q T Y Y Y K D D D V B B B M m m m m j i 4 # O # > 4 +                               ",
"                                @ @ w S ~ ~ T T T F K D D D V V M m m m m x x m z z z j i ; O # +                               ",
"                            # O 1 B Q T T T T T T F D V V V V m m m m m x m z z z z z z j j p > O +                             ",
"                          @ + i ~ ~ T T T K K V D V V V V m m m m m m z z x z z z z j j j j f j i * O @                         ",
"                        @ @ d T T T T T K K V V V V V m m x m m m z m z z z z z j j j j j f f f f s 6 @ +                       ",
"                      # @ f T T K K K K D V V V V m m m m m x x z z z z z z j j j j j f f f f d s s s r # +                     ",
"                      O t T T T K K K V V B V m m m m m m x x x z z z z j j j j f f f f f d d d s s s a t & O                   ",
"                    + 4 T K K K D B V B B M m m m m x m x x x x z j j j j j j f f f f f d d d d s a a a a i # O                 ",
"                  # # x K S D V V B B m m m m m m m x j x j x j j j j j j f f f f d d d d d a a a a a a a p r # @               ",
"                  O 9 K S D B B B B m m m m m m m j k k j x j j j j j f f f f f d d d a a a a a a a p p i i i 7 O               ",
"                # # m V S B B M M m m m z m x z k m j j j j j j j j f f f f d s d d d d a a a a a p i p i i i t > O             ",
"                + 6 B V B B M m m m x m m m z z j j k j j j j j f f f f d d d s a a s a a a p p i i i i i r t t w # @           ",
"                O s m B M *.2.2.@.x m x j z z j j j j j f j f f f f d d d d a s a a a a p p p p i i i i t r r r r 4 O           ",
"              # # B m m <.9.;.:.9.-.x j z z j j j j j j f f f f d d d s d a s a a p p p p i i i i i r r r r r r w w # @         ",
"              @ 1 m m [ 9.^ . . ( 9.M x j z j j j j f f f f f s d s s a a a a p a p p p i i i i i r r r r r w w w 9 < O         ",
"              O 9 m m X.9.X . . o 9.` j j j j j f f f f f s f f a a a a a a p p i i i i r i t r i i i w w w w w w 9 7 #         ",
"              O a x x I 9./ . . ) 6.v j j j f f f f d d s f a a d a a a a p p p i i i i i r r r 9 w 9 w w w 9 9 9 9 9 & #       ",
"              O f x x z >.9.4.4.9.*.j f f f f d d d d d f a a a a a p a p i i i i i i i r r r r w w w w 9 9 9 9 8 8 8 ; O       ",
"              O z x x j j O.1.,...j f f f d f d d s s s a a a a p a p p i i i i r i w w w r w w w 9 w 9 9 9 8 8 7 7 7 < O       ",
"              # z j z j j j j j f f f f f d d d s s s a a a p a p i i i i i r r w r w i w w w w 9 w 9 9 8 8 8 8 7 6 6 5 O       ",
"            @ - z z j j j j j f j f f d d d s d s a a a p p p p p i i t i r r t i w w w w w 9 9 9 9 8 9 8 8 6 7 6 6 6 6 @       ",
"          @ # i j j j f j j f f f d d s s a s a p s p a p p p i i i i r r r r r w w w w 9 9 9 9 9 8 8 8 7 6 6 6 6 6 5 5 @ @     ",
"        @ # a j j j f j j x v n n n v k s a a a p p p p p i i i i i i r r r r r w w w 9 w 9 8 8 8 8 8 6 7 6 6 6 5 6 5 5 # O     ",
"      @ # s j j j v  .+.=.=.=.=.=.=.=.=.=.o.n s p i i i i i t i r r r r 9 4 9 9 9 w 9 9 9 8 8 8 6 6 9 6 6 5 6 5 5 5 4 4 # #     ",
"      O r j j } &.=.=.=.=.=.=.=.=.=.=.=.=.=.=.&.n i 6 9 r i r r r r r 9 # # # $ < 6 9 8 8 7 7 7 7 6 6 6 6 5 5 5 5 4 4 4 # #     ",
"    @ - j I $._ y , * & , 7 g ' =.=.=.=.=.=.@.b 0 @ O @ w r r r w r w < #     # O @ - 6 7 7 6 6 6 6 6 5 5 5 4 4 4 4 4 < @ +     ",
"    + 5 y 7 @ O $ , 3 0 2 : @ O @ , 7 0 3 = @ O & 3   O 4 r r w w 9 9 - #           O @ < 7 6 6 6 5 5 5 4 4 4 4 4 < < < +       ",
"    @ O + : 0                     @ @ + @ #           @ & w w w w 9 9 # #             @ O 1 9 2 5 5 4 4 4 4 4 < < 1 < > O       ",
"      u                                                 O 8 w 9 9 9 8 # #                 O u s 4 4 4 4 4 1 4 < < < < - O       ",
"                                                        O - 9 9 9 9 7 # #                 @ O ` M 4 4 4 < < < < < > > & O       ",
"                                                        # @ 8 8 8 8 6 # #                   + = &.h < 1 < < < > > > > # O       ",
"                                                          O - 8 7 9 6 & O                     O c =.q < < < > < > ; ; @ O       ",
"                                                          # O 5 6 6 6 ; O                     O 7 =.` < ; < ; ; > ; & O         ",
"                                                            + # 6 6 6 > O                     @ $ =.&.1 > ; ; ; ; - & O         ",
"                                        O @                   O # 4 6 4 O                       O *.=.r > ; ; ; - - @ O         ",
"                                        O @ O                   # # ; 4 # O                     O O.=.y ; - ; - & & O           ",
"                                        O & O                     # # # # O                     O #.=.y - - - * & @ O           ",
"                                        + > & +                       # O                       @ =.=.8 - * & & & +             ",
"                                        + & 5 @ +                                             O 1 =.=.: * * & & @ +             ",
"                                        @ % 6 * O                                             O u =.' * & & & % O               ",
"                                        @ # 6 < O                                             O ] =.y * & & % + O               ",
"                                        @ # 4 5 # O                                         O 2 =.+.* $ % % @ +                 ",
"                                        O # 4 4 & O                                         O ' =.e % $ % # O                   ",
"                                        # # 4 4 ; O                                       O q =.c % % % @ + +                   ",
"                                        O * < < < O +                                   + : $.l % $ % # O O                     ",
"                                      # O < 4 < < * O O                               O * ` q # # % @ O O                       ",
"                                    O O - < < < > > - + O                           O @ > & # # # @ + O                         ",
"                                  O O * < < < > ; ; > - # + O                   O O # # % # # # @ O O                           ",
"                                O # - < < > ; & + O # & ; & # O O O O O O O O O @ # # # # # # + O O                             ",
"                            O O # > > > ; & O O +   + O + # & & & # # @ # # # # # # # # # + O O                                 ",
"                          O O # & & # @ O O O           @ O O + @ # & % # % % # # # @ @ O O                                     ",
"                            + O O + O +                       + O O O @ @ + + O O O O O                                         ",
"                                                                      O O O O O O                                               ",
"                                                                                                                                ",
"                                                                                                                                "
};
