/* XPM */
static char *_89fe886f4884abed9c7502c632c2b02BTAlWoXaPISgdR7W[] = {
/* columns rows colors chars-per-pixel */
"64 64 104 2 ",
"   c None",
".  c #010101",
"X  c #444444",
"o  c #5A5A5A",
"O  c #0277BD",
"+  c #0479BE",
"@  c #087BBF",
"#  c #0B7DC1",
"$  c #0F80C3",
"%  c #1383C5",
"&  c #1887C7",
"*  c #1F88C7",
"=  c #1987C8",
"-  c #1C8AC9",
";  c #2089C7",
":  c #228ECC",
">  c #298FCB",
",  c #2591CE",
"<  c #2993CE",
"1  c #3196CE",
"2  c #3799CE",
"3  c #2C96D1",
"4  c #2F98D2",
"5  c #349BD5",
"6  c #399ED5",
"7  c #3AA0D7",
"8  c #3DA2D9",
"9  c #429ED3",
"0  c #44A1D5",
"q  c #42A6DC",
"w  c #4AA5D8",
"e  c #46A9DD",
"r  c #49ABDF",
"t  c #54ABDC",
"y  c #59ADDC",
"u  c #4DAEE1",
"i  c #4FB0E2",
"p  c #53B3E4",
"a  c #59B6E6",
"s  c #5AB8E7",
"d  c #5DBAE9",
"f  c #66B5E0",
"g  c #69B9E4",
"h  c #62BDEB",
"j  c #69BFEA",
"k  c #73BEE6",
"l  c #66C0ED",
"z  c #6AC3EE",
"x  c #7AC1E7",
"c  c #75C5EE",
"v  c #7CC2E8",
"b  c #7CC9EF",
"n  c #6DC6F0",
"m  c #70C7F2",
"M  c #73CAF3",
"N  c #79CEF6",
"B  c #7BD0F7",
"V  c #959595",
"C  c gray63",
"Z  c #A9A9A9",
"A  c #B4B4B4",
"S  c #82C7EA",
"D  c #84C9ED",
"F  c #8ACCEE",
"G  c #91CFEF",
"H  c #83CEF2",
"J  c #88CEF0",
"K  c #89D0F3",
"L  c #8FD3F4",
"P  c #94D2F1",
"I  c #98D4F2",
"U  c #9AD6F4",
"Y  c #9CD9F6",
"T  c #A0D8F3",
"R  c #A3DBF6",
"E  c #AADDF6",
"W  c #A4DDF8",
"Q  c #A7DEF8",
"!  c #A9DFF8",
"~  c #AADFF9",
"^  c #B2DFF5",
"/  c #ABE1FA",
"(  c #AEE2FA",
")  c #B1E0F7",
"_  c #B1E3FB",
"`  c #B1E4FB",
"'  c #B2E4FB",
"]  c #B3E5FC",
"[  c #B2E4FC",
"{  c #BEE5F8",
"}  c gray84",
"|  c gray86",
" . c #C1E5F7",
".. c #CEEAF8",
"X. c #CCEBFA",
"o. c #D1EBF9",
"O. c #DCF1FB",
"+. c #DFF2FB",
"@. c gray90",
"#. c #E9E9E9",
"$. c #FCFDFE",
"%. c #FDFEFE",
"&. c #FEFEFE",
"*. c white",
/* pixels */
"                                                                                                                                ",
"                                                                                                                                ",
"                                                      @ + +                                                                     ",
"                                                    y O 4 - O +                                                                 ",
"                                                      O y h e # O                                                               ",
"                                                      ; 6 N h p % O                                                             ",
"                                                      0 @ E j h p # +                                                           ",
"                                                        O S J h h u = # O O O O + #                                             ",
"                                                        # t ~ h h h l l l d p 8 , # O + #                                       ",
"                                                        > < ] m h h h l l z z n n m a 5 + O #                                   ",
"                                                        9 & ] P h h h l z z z n n m m M n q @ O                                 ",
"                                                        9 # ] Q d h h h h l H U H n m M M M n 4 O #                             ",
"                                                        1 ; ' ' h h h h j { &.&.&.X.m m m M N N u + +                           ",
"        O                                               ; 9 ] ] z d d h T &.C X V &.' m M M M M N s + #                         ",
"      O O O                                             @ f ] ] c d h h o.@.. . . } +.n m M M N N N d + #                       ",
"      + # O                                             O G ] ] b h d h ..#.. . . | +.n m M M M M N N u O                       ",
"      O % # +                                           # ' ] ] b d d d I &.A o Z $./ n n M M M N N N B 3 O                     ",
"      O % : + O                                       @ > ] ] ] b d d d h ) &.&.$.{ n z n n M M M N N B n # #                   ",
"      O # , - O #                                     + 6 ' ' ] c s d d d h z J m z z n z n M M M M M B B q O                   ",
"      + # : : & O +                                   O 9 ' ] ] j a s d d h h h l l z z n n n n M M M B N M # #                 ",
"        O - : , - O O O + O + O O O O O O             O 6 ] ' ' a a a d d d l l l l l z z n n M M M N N B B 5 #                 ",
"        O % : : 3 , & $ # # $ $ & : & O O             % ; ' ' Y p a a s d d d h h l l z z n n M M M M M M B h O                 ",
"        O # : , , , , 3 4 4 5 5 5 & O O                 O E ' b p a a s s d d h h l l l z z n n M M M M N B B $ #               ",
"          O % : , , , 3 3 4 , & O O                     O v ( a p p p s d d d d h h l l z z n n n M M M M B B 4 +               ",
"          + O - , , : - & # O O O                       % 9 b i p p p a s d d d h h l l l z n n n m M M M N M u O               ",
"            O - , & O O O O                             2 # r p p p p a s s d d d h h l l l z n n m m M M M B l O               ",
"          O # - - O O                                     O 5 u u p p p s s d d d h h h l z z z n m m M M N N M O               ",
"          O % - O O                                   + O + 7 u i p p p p s s s d h h l l l l z n n m M M M N M # #             ",
"        O + - # O                               + + O % 3 q u u u p u p p a a s d d h h l l l z z n n m M M M B & +             ",
"        O # & O                             + O + - 7 q e e e u u u p p a a s s d d d h h l l l z n n n m M M M - #             ",
"        O % # O                           + O - 7 8 q q q e u u u u p p p a a a d d d h h h l l z z n n m M M M , O             ",
"      O + & O                           O # 4 7 7 8 q q q e e e u u u p u p a a s d d d h h l l z z n n m m M M - #             ",
"      O @ % O                         O $ 5 5 7 7 8 8 q q q e e u u u u p p p p s s d d h h l l l z z n n M M M - #             ",
"      O # # O                       O # 4 5 5 6 7 8 8 8 q q q u u u u u p p p p s s d d d h h h l z z z n m m M $ #             ",
"      O % # O                       O : 5 5 5 5 7 7 7 8 q q q e q u u u p u p a p s s d d d h l l l z z n n n M # #             ",
"    O O $ + O                     # # 4 3 : - % # # # # % 3 q q q u u u u p p p a p s d d h h h l l z z z n n n #               ",
"    O + $ # O                     O + + O O O O # # O # + O # 8 u 8 8 u u p u a i a s s d d h h h l l z z n n d O +             ",
"    O + $ # O                       + O                     O 4 8 u u u u u u p a s a s d d d h h l l z z z n u O O O           ",
"    O + $ # O                                               # 7 q u u u u u u p p p p a s d d h h h l l z z z 5 O % # #         ",
"    O + # # O                                             # # q q q u u u u u u p p p a a d d d h h h l z z n - # - $ #         ",
"    O O # # @ O                                           O : q 8 q u u u u u u u p p a a d d d d h h l z z l + $ : , # O       ",
"      O # # # O                                           + 6 q q q q q u q u u i i p a a s s d d h h l l z r O - , 5 - O       ",
"      O # # $ + O                                       O - 6 8 8 q q q u u q u i i i a p a s d d h h h l l 5 + 3 4 5 5 O       ",
"      O + # # $ + O                                   O # 5 8 8 8 q 8 u 8 u u u i i i p a a a s d d h h h j @ % 4 5 8 q # O     ",
"        O # # # > % O                                 O , 8 8 8 8 q q u q u u u i i i a a a a s d d h h h r O , 5 7 q r - O     ",
"        O O # # % F ; O                           O O < 5 5 5 6 8 8 8 q q q u u u i i i p i a a s d d h h : @ 5 7 e r p 5 O     ",
"          O # # # 0 E w O O                     O # y 8 5 5 6 8 8 8 q q q q u u u u u i i p a a s d d h p O , 7 e r p p q O     ",
"          O O # @ % k ' F < O O O         + O O ; D a 5 5 5 6 6 6 8 8 q 8 u u 8 u u u i p a p a a s d d , O < q r p a d r O     ",
"            O # # # % k ` ` P y , @ O O O % 6 k ' k 1 5 5 5 5 5 6 8 8 q q q q u e u u u p p p p a s d u O O O : i p h l r O     ",
"            O O # # $ $ w R ] ] ] ` Q T E ` ' ' g 1 4 4 4 5 5 6 7 7 8 8 8 q q q e u u u u p p p p s a - +     O - d z z 7 O     ",
"              O O # $ % # & t F ] ] ] ] ' ` F q , 3 3 4 4 5 5 5 5 8 7 8 q q q u e u u u p u p p p s 5 O         O , z M < O     ",
"                O O # # % % % & - 0 r t w < : , , < < 3 4 4 5 5 5 5 8 8 8 8 q q q e u u u p p p p e + +           O q B % O     ",
"                  O O # # % % % = & & - - - - , , 3 3 3 4 4 5 5 7 7 8 8 8 q q q e r u u u u i p i # O             O + a O       ",
"                    O O # % $ % % & & - - - , , : , , < 4 4 4 5 5 5 5 7 8 8 q q q r q e u u i u $ +                 O + O       ",
"                      O O # $ % % & & - - : : : : : 3 3 3 3 4 4 5 7 7 7 7 8 q q q r u r u u e $ O                     O O       ",
"                          O + # % % & - - - - : : 3 , 3 3 3 4 4 5 5 5 5 8 6 8 q q q q e u 6 # O                       O         ",
"                            O O # $ & & - - : : : , , , , 3 3 4 5 5 5 7 7 8 8 q q q q q , O +                                   ",
"                                O O + % = = - - - , , , , 3 3 4 4 5 5 5 5 8 8 8 q q 4 # O                                       ",
"                                    O O + $ & - : : , , , 3 3 4 4 5 5 5 7 5 7 5 , # O +                                         ",
"                                        O O O O # & - , , , < 4 3 5 4 4 3 - $ # O O                                             ",
"                                              + O O O O O + # # # # # O # # #                                                   ",
"                                                          + + O O O                                                             ",
"                                                                                                                                ",
"                                                                                                                                "
};
