/* XPM */
static char *_c857b7ea5104d64c51e87babbb3da39llE9bniUf66JcXLS[] = {
/* columns rows colors chars-per-pixel */
"64 64 2 1 ",
"  c None",
". c black",
/* pixels */
"           ..........................................           ",
"           ..........................................           ",
"           ..........................................           ",
"           ..                                      ..           ",
"           ..                                      ..           ",
"           ..    ..............................    ..           ",
"           ..   ................................   ..           ",
"           ..   ................................   ..           ",
"           ..   ...                          ...   ..           ",
"           ..   ...                          ...   ..           ",
"           ..   ...                          ...   ..           ",
"           ..   ...                          ...   ..           ",
"           ..   ...                          ...   ..           ",
"           ..   ...                          ...   ..           ",
"           ..   ...                          ...   ..           ",
"           ..   ...                          ...   ..           ",
"           ..   ...                          ...   ..           ",
"           ..   ...                          ...   ..           ",
"           ..   ...                          ...   ..           ",
"           ..   ...                          ...   ..           ",
"           ..   ...                          ...   ..           ",
"           ..   ...                          ...   ..           ",
"           ..   ...                          ...   ..           ",
"           ..   ...                          ...   ..           ",
"           ..   ................................   ..           ",
"           ..   ................................   ..           ",
"           ..    ..............................    ..           ",
"           ..                                      ..           ",
"           ..                                      ..           ",
"           ..                                      ..           ",
"           ..                                      ..           ",
"           ..      .....                           ..           ",
"           ..     .......                          ..           ",
"           ..     ... ...                          ..           ",
"           ..    ...   ..                          ..           ",
"           ..    ...  ...                          ..           ",
"           ..     .......                          ..           ",
"           ..      .....                           ..           ",
"           ..       ..                             ..           ",
"           ..                                      ..           ",
"           ..                                      ..           ",
"           ..                                      ..           ",
"           ..                                      ..           ",
"           ..                                      ..           ",
"           ..                                      ..           ",
"           ..                                      ..           ",
"           ..                                      ..           ",
"           ..                                      ..           ",
"           ..                                      ..           ",
"           ..                                      ..           ",
"           ..                                      ..           ",
"           ..                                      ..           ",
"           ..                                      ..           ",
"           ..                                      ..           ",
"           ..                                      ..           ",
"           ..                                      ..           ",
"           ..                                      ..           ",
"           ..                                      ..           ",
"           ..                                      ..           ",
"           ..                                      ..           ",
"           ..                                      ..           ",
"           ..........................................           ",
"           ..........................................           ",
"           ..........................................           "
};
