/* XPM */
static char *_41bb0a1eac24688d9f5bb86c24ef01aVVnMwTOzui3B8fkT[] = {
/* columns rows colors chars-per-pixel */
"64 64 153 2 ",
"   c None",
".  c #010101",
"X  c #0E0E0E",
"o  c gray7",
"O  c gray21",
"+  c #3B89BE",
"@  c #4886B7",
"#  c #4787B9",
"$  c #478CBE",
"%  c #1E8DCC",
"&  c #1B8FD0",
"*  c #1490D4",
"=  c #1C91D2",
"-  c #1D97D8",
";  c #2587C3",
":  c #2288C6",
">  c #2E8BC6",
",  c #258ECC",
"<  c #2B8DC9",
"1  c #348BC3",
"2  c #398DC4",
"3  c #2690CD",
"4  c #2B91CE",
"5  c #3B91C7",
"6  c #3495CE",
"7  c #3F95CA",
"8  c #3A98CF",
"9  c #2692D0",
"0  c #2A94D1",
"q  c #2C99D6",
"w  c #249BDA",
"e  c #2B9CD9",
"r  c #3095D0",
"t  c #349BD5",
"y  c #3A9BD3",
"u  c #369FD9",
"i  c #3A9FD8",
"p  c #3EA3DC",
"a  c #2DA8E6",
"s  c #34A7E3",
"d  c #35A9E5",
"f  c #3BABE4",
"g  c #34ACE9",
"h  c #3AAEE8",
"j  c #3CB3ED",
"k  c #3DB9F5",
"l  c #4692C4",
"z  c #4597CB",
"x  c #429ACF",
"c  c #459CD1",
"v  c #44A1D7",
"b  c #4BA1D4",
"n  c #43A7DD",
"m  c #48A6DA",
"M  c #4EA8DA",
"N  c #55A6D7",
"B  c #53AADB",
"V  c #59ABDA",
"C  c #62ABD6",
"Z  c #63AEDB",
"A  c #66B3DD",
"S  c #6CB3DC",
"D  c #75B4DB",
"F  c #74B8DF",
"G  c #43ACE3",
"H  c #48ACE1",
"J  c #55AFE0",
"K  c #42B3EB",
"L  c #53B0E2",
"P  c #5FB3E1",
"I  c #5BBDEE",
"U  c #41BBF5",
"Y  c #51BDF1",
"T  c #65B7E3",
"R  c #6AB7E2",
"E  c #6CBAE4",
"W  c #75BCE3",
"Q  c #7ABCE1",
"!  c #40C2FC",
"~  c #4DC7FE",
"^  c #4DC8FF",
"/  c #6EC0EA",
"(  c #7BC4EA",
")  c #63CEFF",
"_  c #78CDF5",
"`  c #70CFFA",
"'  c #75D3FD",
"]  c #78D5FF",
"[  c gray52",
"{  c gray56",
"}  c #959595",
"|  c #83BFE2",
" . c #84C2E5",
".. c #8BC4E5",
"X. c #86C6E9",
"o. c #88C7E9",
"O. c #8ECAEA",
"+. c #91C6E6",
"@. c #97C9E6",
"#. c #95CDEB",
"$. c #9FCDE8",
"%. c #84CEF2",
"&. c #8ACEF0",
"*. c #84D6FB",
"=. c #8DDBFF",
"-. c #96D3F2",
";. c #9ED5F1",
":. c #9DDFFD",
">. c #A6D1EA",
",. c #AAD3EB",
"<. c #BADBEE",
"1. c #AFD9F0",
"2. c #B6DDF2",
"3. c #BADEF2",
"4. c #9FE0FE",
"5. c #A0E2FF",
"6. c #ADE2FB",
"7. c #BCE0F3",
"8. c #B4E7FF",
"9. c #BEE5F8",
"0. c gray82",
"q. c #D5D5D5",
"w. c #C1DFF0",
"e. c #C6E4F4",
"r. c #CCE4F3",
"t. c #C0E6F8",
"y. c #C1EBFE",
"u. c #C3ECFE",
"i. c #C5EDFF",
"p. c #C4EDFE",
"a. c #D0E7F4",
"s. c #D6EAF6",
"d. c #DCEDF7",
"f. c #D1F0FD",
"g. c #D3F1FE",
"h. c #D5F2FF",
"j. c #DCF4FE",
"k. c #DEF4FE",
"l. c #DFF4FD",
"z. c gray89",
"x. c #EAEAEA",
"c. c #E1EFF8",
"v. c #E4F5FE",
"b. c #EEF7FB",
"n. c #EDF9FE",
"m. c gray94",
"M. c gray96",
"N. c #F1FAFF",
"B. c #FBFDFE",
"V. c #FCFEFF",
"C. c white",
"Z. c #FEFEFE",
"A. c #FEFEFF",
/* pixels */
"                                                                                                                                ",
"                                                                                                                                ",
"                                                                                                                                ",
"                                                                                                                                ",
"                                                                                                                                ",
"                                                                                                                                ",
"                                                                                                                                ",
"                                                                                                                                ",
"                                                                                                                                ",
"                                                                                                                                ",
"                                                                                                                                ",
"                                                                            , , , , ,                                           ",
"                                                                      , , , 4 c V V 4 ,                                         ",
"                                                                  , 3 4 b R X.o.o.o.6 ,                                         ",
"                                                              , , 0 M T E W E E T R 3                                           ",
"                                                          , , 4 m J V L L L L J L m ,                                           ",
"                                              , , , , , , , , , , 9 t i p p p p p t ,                                           ",
"                                      , , , , , 1 2 + + + + + + 1 > , , 3 0 e e e 9 ,                                           ",
"                                  , , , 1 + @ @ @ @ @ @ @ @ @ @ # @ # + > , , = * , ,                                           ",
"                              , , , + @ @ @ @ @ @ @ @ @ @ @ @ @ @ @ @ # # # 1 , % , ,                                           ",
"                          , , < + # # # # # # # # # # # # # # # # # # # # # # + , , ,                                           ",
"                        , , 2 $ $ $ $ $ $ $ $ $ $ $ $ $ $ $ $ $ $ $ $ $ $ $ $ $ $ 1 , ,                                         ",
"                    : , 6 l l l l l l l l l l l l l l l l l l l l l l l l l l l l l 5 , ,                                       ",
"                  , , 6 z z z z ; z z z z z z z z z z z z z z z z z z z z z z z z z z z , ,                               ,     ",
"                , , y c c c c c 6 ; x c x c c c c c c c c c c c c c c c c c c c c c c c y , ,                           , ,     ",
"              , , y v v v v v v v , 4 v v v v v v v v v v v v v v b v v v v v v v v v v v y , ,                       , ,       ",
"            , , i n n R o.T n n n i % p n n n n n n n n n n n n n n n n n G n n n n n n n n t ,                     , , ,       ",
"            , u G G 2.Z.Z.Z.7.G G f 3 0 G G G G G G G G G G G G G G G G G G G G G G G G G G G 0 ,                 , 4 q ,       ",
"          , u j K %.Z.{ O } Z.O.K G e = K K K K K K K K K K K K K K K K K K K G K K K K K K K G 3 ,             , 0 f q ,       ",
"        , 9 K K K 7.z.. . . x.7.K K d = h K K K K K K K K K K K K K K K K K K K K K K K K K K K f , ,       , , q K K 9 ,       ",
"        , h U U U 1.m.X . o M.8.U U j = d U U U U U U U U U U U U U U U U U U U U U U U U U U U U d , , , , 0 d U U j 3         ",
"      , e U U U U ) B.0.[ q.V.) U ! k = a U U U U U U U U U U U U U U U U U U U U U U U U U U U U U k g g j U U U U j ,         ",
"    , , k ! ! ! ! ! ' j.Z.k.] ! ! ! ! - a ! ! ! ! ! ! ! ! ! ! ! ! ! ! ! ! ! ! ! ! ! ! ! ! ! ! ! ! ! ! ! ! ! ! ! ! ! g ,         ",
"    , 3 d U ^ ^ ^ ^ ^ ^ ^ ^ ^ ^ ^ ^ ^ w g ^ ^ ^ ^ ^ ^ ^ ^ ^ ^ ^ ^ ^ ^ ^ ^ ^ ^ ^ ^ ^ ^ ^ ^ ^ ^ ^ ^ ^ ^ ^ ^ ^ ^ ^ ^ ^ f ,         ",
"      , , , 4 p Y ) ) ) ) ) ) ) ) ) ) e K ) ) ) ) ) ) ) ) ) ) ) ) ) ) ) ) ) ) ) ) ) ) ) ) ) ) ) ) ) ) ) ) ) ) ) ) ) f ,         ",
"            , , , ` ] ] ] ] ] ] ] ] ] u I ] ] ] ] ] ] ] ] ] ] ] ] ] ] ] ] ] ] ] ] ] ] ] ] ] ] ] ] ] ] ] ] ] ] ] ] ] H ,         ",
"              , 3 *.=.=.=.=.=.=.=.=.*.p _ =.=.=.=.=.=.=.=.=.=.=.=.=.=.=.=.=.=.=.=.=.=.=.=.=.=.=.=.=.=.=.=.=.=.=.=.=.L ,         ",
"          , , i %.4.5.5.5.5.5.5.4.5.%.v 4.5.5.5.5.5.5.5.5.5.5.5.5.5.5.5.5.5.5.5.5.5.5.5.5.5.5.5.5./ v t m %.4.4.4.4.T ,         ",
"        3 M -.8.8.8.8.8.8.8.8.8.8.8.( R 8.8.8.8.8.8.8.8.8.8.8.8.8.8.8.8.8.8.8.8.8.8.8.8.8.8.8.6.m 3 , , 3 , T 8.8.8.( ,         ",
"        , B i.i.p.p.p.p.i.i.i.i.p.p.A ;.p.p.p.i.i.i.i.i.i.i.i.i.i.i.i.i.i.i.i.i.i.p.p.p.p.p.p.V 3         , 3 P y.i.-.3         ",
"          , W h.h.h.h.h.h.h.h.h.h.9.A h.h.h.h.h.h.h.h.h.h.h.h.h.h.h.h.h.h.h.h.h.h.h.h.h.h.h.O.,               , V g.9.,         ",
"          , ,  .v.v.v.v.v.v.v.v.v.+.7.v.v.v.v.v.v.v.v.v.v.v.v.v.v.v.v.v.v.v.v.v.v.v.v.v.v.e.4 ,                 , P k.6 ,       ",
"            , , F b.N.N.N.N.N.n.s.>.N.n.N.N.N.N.n.N.N.N.N.n.N.n.N.n.N.N.n.N.N.N.N.n.N.N.v.b ,                     , A N ,       ",
"              , , N v.Z.Z.V.V.V.a.V.V.V.V.V.V.V.V.V.V.Z.V.V.Z.V.V.V.V.Z.V.V.V.Z.Z.V.V.b.N ,                         , 4 ,       ",
"                  , r ,.Z.Z.Z.Z.Z.Z.Z.Z.Z.Z.Z.Z.Z.Z.Z.Z.Z.Z.Z.Z.Z.Z.Z.Z.Z.Z.Z.Z.Z.Z.s.b ,                             , ,       ",
"                    , , N r.Z.Z.Z.Z.Z.Z.Z.Z.Z.Z.Z.Z.Z.Z.Z.Z.Z.Z.Z.Z.Z.Z.Z.Z.Z.Z.N.+.4 , ,                               ,       ",
"                        , , N <.Z.Z.Z.Z.Z.Z.Z.Z.Z.Z.Z.Z.Z.Z.Z.Z.Z.Z.Z.Z.Z.Z.c...6 , 0 0 ,                                       ",
"                            , , y | e.V.Z.Z.Z.Z.Z.Z.Z.Z.Z.Z.Z.Z.Z.Z.Z.r.@.V , , y B T P ,                                       ",
"                                , , , 4 V | >.w.s.c.v.c.c.a.<.$.| N 4 , , y V Q o.O.#.#.c ,                                     ",
"                                      , , , , , , , , , , , , , , , , , , 4 V o.1.2.3.3.Q ,                                     ",
"                                              , , 4 N c c x , ,           , , , 4 N F ..W ,                                     ",
"                                                  , 6 D D C ,                   , , , , , ,                                     ",
"                                                    , , N S ,                                                                   ",
"                                                      , , , ,                                                                   ",
"                                                                                                                                ",
"                                                                                                                                ",
"                                                                                                                                ",
"                                                                                                                                ",
"                                                                                                                                ",
"                                                                                                                                ",
"                                                                                                                                ",
"                                                                                                                                ",
"                                                                                                                                ",
"                                                                                                                                "
};
