/* XPM */
static char *_2ab7721c4564bd7a4b9982724b9da7fSZBAuF3mdjcH0lmP[] = {
/* columns rows colors chars-per-pixel */
"64 64 188 2 ",
"   c #322C21",
".  c #38352A",
"X  c #423E36",
"o  c #454136",
"O  c #49453B",
"+  c #57503D",
"@  c #4D4A43",
"#  c #504D47",
"$  c #534F4A",
"%  c #5B5445",
"&  c #55514C",
"*  c #59544C",
"=  c #5E5B4E",
"-  c #555452",
";  c #595551",
":  c #5D5A55",
">  c #5E5D5B",
",  c #635B4F",
"<  c #625C53",
"1  c #635F59",
"2  c #656155",
"3  c #6B6455",
"4  c #66635D",
"5  c #6C645C",
"6  c #6D695E",
"7  c #786754",
"8  c #716A5D",
"9  c #79715D",
"0  c #656462",
"q  c #6A6662",
"w  c #6C6A64",
"e  c #666668",
"r  c #676968",
"t  c #6D6D6B",
"y  c #726B62",
"u  c #716E6B",
"i  c #6F706E",
"p  c #767365",
"a  c #7D7165",
"s  c #73726D",
"d  c #7A766C",
"f  c #6A6C72",
"g  c #757573",
"h  c #797673",
"j  c #7C7A75",
"k  c #74767A",
"l  c #77797D",
"z  c #7C7C7B",
"x  c #867A6A",
"c  c #817D75",
"v  c #817E7B",
"b  c #7F817E",
"n  c #87806E",
"m  c #9B886E",
"M  c #8A8273",
"N  c #84817D",
"B  c #8B857C",
"V  c #8E8A7F",
"C  c #968775",
"Z  c #928B7F",
"A  c #9F947F",
"S  c #A4937D",
"D  c #A3997E",
"F  c #AE9979",
"G  c #B49B7F",
"H  c #7C7E81",
"J  c #7E8184",
"K  c #848483",
"L  c #898683",
"P  c #878986",
"I  c #8C8A85",
"U  c #858689",
"Y  c #888788",
"T  c #87888C",
"R  c #8C8C8B",
"E  c #948583",
"W  c #928C84",
"Q  c #928E8B",
"!  c #9A8B88",
"~  c #969185",
"^  c #9E9482",
"/  c #93918D",
"(  c #9B958C",
")  c #9F988C",
"_  c #878C90",
"`  c #8C8E92",
"'  c #8E9094",
"]  c #8F9398",
"[  c #949493",
"{  c #999692",
"}  c #9C9995",
"|  c #949699",
" . c #97999B",
".. c #9C9C9B",
"X. c #A29385",
"o. c #A39B8D",
"O. c #AA9E8C",
"+. c #B19E8E",
"@. c #A29593",
"#. c #A39C93",
"$. c #AC9D95",
"%. c #A29E9B",
"&. c #AC9E99",
"*. c #9FA09D",
"=. c #AEA18E",
"-. c #B5A38E",
";. c #B8A68B",
":. c #BCA98D",
">. c #A5A196",
",. c #ACA295",
"<. c #A4A19D",
"1. c #AAA49C",
"2. c #ADA99C",
"3. c #B2A694",
"4. c #BFA490",
"5. c #B5A992",
"6. c #BBAC95",
"7. c #B2A59C",
"8. c #B3AA9D",
"9. c #B9AD9E",
"0. c #BFB09C",
"q. c #9D9EA1",
"w. c #9EA0A2",
"e. c #A4A3A3",
"r. c #AAA6A2",
"t. c #A7A8A7",
"y. c #ACA9A5",
"u. c #A4A5A9",
"i. c #ACA7A8",
"p. c #A7A9AC",
"a. c #ACACAB",
"s. c #B3ACA4",
"d. c #BAADA3",
"f. c #B2AEAB",
"g. c #BCAEA9",
"h. c #B6B0A5",
"j. c #BBB1A5",
"k. c #B5B1AC",
"l. c #BAB4AC",
"z. c #BEB8AD",
"x. c #ADAEB2",
"c. c #B1AFB2",
"v. c #AEB0B2",
"b. c #B5B4B3",
"n. c #BAB6B2",
"m. c #BDB9B5",
"M. c #B6B6B9",
"N. c #B8B7B9",
"B. c #B7B8BB",
"V. c #BCBCBB",
"C. c #C0A795",
"Z. c #C2B49C",
"A. c #C3B4A4",
"S. c #C1B5AA",
"D. c #C1B9AE",
"F. c #C8BBAD",
"G. c #C2B6B3",
"H. c #C2BCB5",
"J. c #C8BFB6",
"K. c #C1BEBB",
"L. c #C8BFBB",
"P. c #C7C1B6",
"I. c #CAC1B2",
"U. c #C4C1BD",
"Y. c #C9C3BC",
"T. c #CEC9BF",
"R. c #B6BBC3",
"E. c #BEBEC1",
"W. c #C0BFC0",
"Q. c #BFC0C2",
"!. c #C2C1C1",
"~. c #C5C4C2",
"^. c #C4C4C3",
"/. c #C6C6C5",
"(. c #C9C6C3",
"). c #C7C8C7",
"_. c #CBC9C6",
"`. c #C6C7C9",
"'. c #C8C7C8",
"]. c #C7C8CA",
"[. c #CAC9C9",
"{. c #CBCBCA",
"}. c #D0CFCE",
"|. c #D0D0CE",
" X c #CCCDD1",
".X c #CFD0D0",
"XX c #D2D2D2",
"oX c #DADAD9",
/* pixels */
"s.f.G.L.J.i.j i./.V.t { M.{.^.w.R _.I.P.U.l.k.(. .} e.x.h.~ P b M Z =.5.b p P.n.m.m.j.n.Y.U.H.G.l.s.U.V.K.b./ v ! K.i.G.g.&.f.{.",
"K.E f.L.W.W.b M./..Xb.l s K ..T J p.h.m.V.h.t.( B ,.A =.8.D V 6 >.y.h.8.b 4 U.U.m.8.h.b.U.U.G.m.m.n.k.U.W.c.Y c E @.@.g.'.g.y.G.",
"G.d.&.g.G.{.b e.{.{./.V.w.] w.] u.e.z x / >.I b *.k.3.3.2.2.*.= b m.v. .r 1 m.V.H.G.y.a.V.U.U.U.V.E.n.k.W.q.[ I v s q 5 E G.G.L.",
"r.g.S.r.f.M.U I V./.b.!.Q.{.{.B.^.e.y l.U.^.n./ B.k.h.h.h.y.2.9 + ) 2.*.b s k.h.h.{.K.y.b.k.K.n.V./.K.a.b.p.R  XN.b.c.v q h v &.",
"Y 4 w h i t u n.^.].n.E.!./.].b.XXI d oX).^..X( { Q.m.2.a.y.2.n % ~ <.y.P b 8.h.m.l.U.K.c.n.W.K.n.W.N.b.f.u.[ {.b.V.{.'.K.i.e.q.",
"W.q.R j b u g }.!.^.{.{.].{.{.E..Xj z {.Q.^.{.{.~ y._.h.2.} *.M , >.~.2.( ) 2.K.U.n.s.K.n.c.V.E.V.W.K.K.n.N.[ V.K.'.^.{. X'.W.'.",
"(.G.f.1.L q z }.U.V.V.].].].XX/././ P b.n.V./.{.a.N U.).b.k.k.M = j a.m.a.a.V m.^.K.W.(.V.V.f.K.E.n.N.^.V.W.T f.{.{./.E.^.{.V.(.",
"(.L.H.i.v 1 Q {.^.{./.!.).{.{.).K.P R a.XX).{.^.U./ b .XB.b.v.p 6 O   O $ R ( o.L.m.^./.V.^.V.l.H.^.K.K.n.B.z [ N.W././.^.{././.",
"U.U.L.r.5 $ u.{.^.]..XE.{.{.E.XXt.K y , d t.U.{.V.U.b e.^.E.} 3 I *.V 3 * g n.>.1.{.!.V.c.l.(.n.f.W.W.`.E.`.K l E.N.N.V.V.E.V.V.",
"n.U.L.K w & j .XXXQ.~.E.V.{.m.].w.2.X.x 7 7 I B w R *.N c.a.p x 2.h.h.z.k.N V.P.^ k.{.U.L.m.V.^.W.N.E.M.`. XR 0 E././.V.V.^.n.b.",
"U.z.v z  .K $ ; [ E.).{.!.{.{.b.) z.0.A.F.Y.T.,.( t f.y.*.} z ( 2.,.o.8.n.z } ].m.( n.l.K.^.^.E. XE.M.W.E.c.[ e M.{.{./.V.V.n.i.",
"{ <.R R u.` 5 $ q h R a.p.*.*. .*.~.H.n.m.n.K.(.h.6 y.b.} / B h.h.h.,.,.l.N h !./.y.r.K.V.V.^.v.W.W.V.c.[ l q._ i. X/.(.!.V.n.{ ",
"0  .u.p.a.N B <.E.k./ g g g b g a.b.B.m.b.a.a.m.P.M O.=.2.K ) D.h.n.h.h.h.B 5 b.V.V.u.W.E.V.!.V.c.| H l U K | | K ^.(.^.(.!.Y t ",
"L R [ u.b.e.V.V.n.n.{.E.x.x.U l {.].E.a.a.m.B.V.^.j m X.e.z >.H.m.n.m.l.y.>.z f./.!.<.Q V.V.M.u.| ' ..<.y.%._ H : l.K.m.^. .R R ",
"n.V.e.%.!.b.b.^.).Q.`.`.B.x.i U .X/./.m.b.^.U./.U.s ..*.w.h 1.j.m.m.l.n.k.k.Q c %.e.W c s g _ q.1.1.6.4.8.S.n.b.t K V.b.p.[ j c.",
"k.D.f.!.V.n.k.Q./.)./.].Q.p.: [ .X.X.XV.a.E.E.{.{.b c.).a.h 1.8.h.K.H.n.l.s.[ / f.k.n.s.&.K ..Y.-.F 4.6.j.l.D.S.b.t K T U e.K y.",
"k.r.n.{.K.V.M.M.V.E.{./.{.M.- b.{.{.}.{.V.b.V./.XXT R !.Q.s s.A.d.n.P.H.n.<.R y.n.b.U.m.k.h.N <.U.5.5.D.b.f.Y.H.D.b.k e K u.1.f.",
"H.#.M./.V.V.n.a.V.K.M.{.{.R.- <.W.'.(.(.^.n.~.{.XXc.B a.).R #.A.8.n.P.z.a./ c n.U.n.l.l.n.n.k.J t.m.f./.V.s.V.H.j.i.H K %.@.#.f.",
"l.7.k.V.{.(.K.y.r.b.G.D.H.M.: Q M.K.{.U./.U.U.{.oXn.N ..b.*.%.0.s.l.n.y. ./ { l.U.l.-.z./.m.U.b.b s.n.!.^.y.s.G.d.p.g R f.} ..f.",
"{ l.n.a. .V.{.K.j.8.8.$.s.'.g K i.V.(.U.b.b.V.!.XX(.} a.M./ R S.8.l.a.e.[ } H.m.P.U.m.U..X^.U.~.p.v a.!.{.b.f.G.n.R.J _ N.f.y.e.",
"h v y u z z  .K Q f.H.V.V.{.T B f.K.{.{.K.b.b.b.{.{.n.K.V.R [ H.9.{ / e.1.k.U.U.U.(.Y.K.~.).~.~.).p.g a.{.V.f.m.r.x.] ] u.L K K ",
"%.M.v u.R.q.p.W * q ..f.u.x._ d #.<.k.b.t...b.E.V.^.V.V.^.z N L.%.[ [ V.U.V.U.V.~._._.U.U./._.{.~.).K s ..B T | T K _ l b |  .[ ",
"r.q.K b.K.M.M./.s.h 0 | p.x...N L B L } K s b p.!.!.V.M.e.K [ r.' [ a.K.U.K.U.m._._.{._.~.).^.~.{.{.I N R f z q.a.E.q.z e ' q.#.",
"u.L z M.m.V.{.K.n.m.j r.<.b.<.b.b.f.b.Q.V.t.P s h u.M.e.N e.U.M.j } {.n.P.b.).!.~._.|.{.).Q.U.).{.{./ s _ H ..E.M.U H x.[ K [ | ",
"x.e K !.c.M.^.{.U. .N o.-.l./ e.M.b.N.c.f.i.W.N.{ @.u.{ v } N./.P 1 b.U.U.U.V.~.~.).{.{.{.^./.^.U.V.w.k.e.R M.k.p.l H M.R.B.c.M.",
"U 0 t.{.k.M./.!./ g } / ) } I U f.M.M.f.i.e.G.W.{.W.a.Q ! i.f.i.V.N 4 L.K.M.b.^.V.U.~.{.{._.)./.^.E.[ n.H.{ E.V.q.l x.`.^.M.x.M.",
"q [ K.V.k.b.b.R N a.{./.b.| P i Q n.c.c.f.i.i.c.V.b...N G.V.g.&.l.!.h w (.~.V.{.{.~.).{.Q.^.{./.E.V.R 8.Y.#.e.a.l [ /./.`.Q.b.q.",
"R /.!.V.t...[ ..n.U.U.^.E.Q.n.( h ! f.f.f.g.n.N.b.e.[ ! L.K.(.G.f.H.^.t c V.{./.!.{.U.}._.E.~.K.n.c.R m.H.n...[ z M.V.W.Q./.R.` ",
"a...} } [ [ y.m.m.V.).P.U.!.b.b.f.g v k.f.b.N.M.a.[ %.G.n.K.l._.S.y.K.f.2 * Q XX{.^._.^.~.).V.b.v.*.P U.~.Y.m.y.b.~.^._.'./.x.0 ",
"} #.<.k.[ y.U.n.m.H.U.4.F.~.n.U.U.M.z s e.^.K.N.<.L @.e.i.K.b.V.G.G.(.B.p.s X I .XXX{.(.E.].^.E.Q.t.1.(.Y._.T.(.{.Y._.|.V.[ k @ ",
">.1.3.y.b } _.U.l.Y.H.j.Y.P.P.U.m.U.V.U 1 [ c.u.T &.V.n.@.i.G./.V.c.(.(.n...0 1 t / .X/.^._.{.b.w.y.H.P.P.U._.{.{.{.V.b...I g @ ",
"8.3.S o.t j z.m.m.H.U.z.Y.H.U.l.H.U.U.b...e 5 l { r.r.b.n.g.G.L.W.g.m.(.U.t.l e.t.0 / .Xm.^.Q.B.} s.U.U.T.P.Y.{.U.y.v.a.v.p.[ k ",
"S =.6.5.b i U.n.m.n.j.m.U.Y.H.m.g.s.L.K.K.N.R v ! E.&.G.g.&.s.{.f.g.G.L.G.i.l i..XV.r *.b.).Q.e./ ).I.P.U.l.k.). .~ *.b.k.*.y.{ ",
"O.3.=.5.b 4 U.K.m.2.h.n.U.U.z.m.V.b.c.W.W.b.L h ! @.@.s.{.S.7.K.V.E f.W.W.(.v b.Q..Xb.j i J *.P J t.h.m.m.k.y.( K 3.A o.6.D *.~ ",
"d d j t @ : H.K.P.m.y.y.V.K.U.U.V.K.n.g.W.q.[ R c g q q E G.G.L.G.g.&.g.G.{.J e.{.]./.Q.e.| w.] u.e.b n ~ *.I b  .h.2.5.2.2.2.p ",
"d <.v.T r w k.h.h.{.m.r.f.k.K.m.V.`.W.i.b.i.R XXV.c.c.v q h v %.i.d.S.&.f.M.R L U.Q.k.U.Q.).Q.p.b.<.8 b./.Y.k./ b.b.h.l.k.k.2.n ",
"3 >.k.<.b N l.k.m.n.U.n.z.n.U.K.N.V.n.b.f.p.[ '.n.V./.{.B.p.t.e.L 0 w h u u H i.n.U.k.v.k.B.m.<.t.I j (.~.t.b.a.a.U.k.k.y.*.2.M ",
"6 #.^.a.) >.2.H.U.U.m.z.k.V.Q.V.V.m.K.K.b.M.[ K.G./.V.{. X/.V.{./...Q j b u Q 7.o.*.*.*.*./ ( a.( 8 P e.B N m.U.m.U.U.V.>.B >.Z ",
"2 j y.m.m.U.s.z.K.U.^._.k.k.V.U.K.n.n.^.K.E.T f.{././.W./.{.V.(.(.H.k.<.I 4 v s.B b b N b ) V y.>.6 < 3 4 } b.m.K.m.~.T.h.k.h.V ",
"w O   O @ 4 <.K.V.k.h.s.m.P.U.U.U.Y.K.K.b.V.l [ N.W././.!.{./.~.Y.U.m.i.L s 4 z b / / } 2.*.~ y.y.Q b s ) ,.2.b.m.m.U.U.B.v.t.9 ",
"/ ) I 3 % o . w [ <.2.3.z.^.{.H.l.G.G.~.^.'.U l E.M.V.V.V.!.K.V.U.Y.L.e.p b p r / *.*.*.<.*.V *.<.y./ 2._.z.j.8.h.m.~.m.a.V./ 6 ",
">.h.h.j.H.#.B t & 4 r d ~ y.n.K.l.j.m.V.!. XU 0 E.!.!.V.N./.n.b.n.U.U.K b T ] / } t.v.h.k.<.<.<.V <.P 6 Y.P.m.l.*.>.k.m.*.*.3 b ",
"2.,.>.2.P.z.j.T.} d { c 2 p / a.m.V.v.R.V.M.[ 0 M./.{./.V.V.k.i.K.D.N N ' b P / *.t.V.k.a.t.t.v.1.~ *.: Q (.m.n.9.) 2.m.t.} b A ",
"k.j.,.,.z.9.z.k.} b z.P.9.h.b.p.V.B.b.x.[ l q._ a.XX/.(.!.V.m.[ { e.R K i I *./ / [ b.m.k.h.y.*.k.y.a.} 4 T.Y.(.U.2.2.k.*.' V 9.",
"h.m.h.h.j.5.9.u.I e.H.H.V.n./.V.v.} K g U K | | K (.(.L.(.~.R r 0 } e.[ s [ *.*.*.[ <.n.n.V.H.2.<.l.k.e.4 2.~.U.P.9.A =.>.b ) I.",
"l.b.m.l.z.9.s. .R k.a.k.V.b.M.u.` ]  .%.i.q._ H : n.K.V./. .R R L ` R ..w N <.*.a.<.v.k.2.k.V.m.a.y.a.*.K : b } ~ n m ) *.b >.D.",
"m.H.l.z.z.z.k.[ k.k.k.p.<.K ` ..r.1.6.:.8.S.n.b.t K V.b.u.| g f.n.m.e.k./ 4 v.a.m.t.k.H.9.k.m.y.k.V.<.I K t t h c h } *.*.g 2.h.",
"k.P.H.m.m.l.*.} ^.U.U.L.m...e.L.;.F :.6.j.D.l.S.b.t b T U e.K s.k.n.s.V.s.0 N >.*.h.h.k.a.h.m.y.I T P ] { / *.a.b.k.V./.v.g 2.9.",
"8.m.H.m.H...K <.n.n.E.K.U.U./ e.U.8.5.z.l.k.U.H.l.b.k e K u.&.l.m.2.k.k.2.*.> >.) r.%.s.n.k.y.I b  .a.a.8.#.e.a.b.e.p.V.!.s s.A.",
"d.n.P.z.a./ z n.!.n.l.l.b.n.V./ y.m.h.~.V.y.K.H.j.y.H K %.#.{ f.U.*.z.P.k.m.V p y.r.n.f.{ I } e.a.k.~.H.l.b.h.f.f...<.a./.R #.A.",
"d.l.m.a.[ [ } n.U.l.-.z.U.V.E.V.U s.b.E.^.y.l.m.s.p.g R a.....b.h.2.b.h.P.z.y.b < N v , 2 J #.j.h.1.V.U.l.n.m.V.n.p...%.x.<.#.j.",
"8.l.a.e.[ } H.H.P.Y.m.U..XU.U.{.p.g y.^.].b.f.D.m.R.U ` n.a.y.%.{ m.m.k.m.H.l.n.n w M W #.C G C.z.1.y.8.n.n.n.B.V.K.n.M.M.Q Q D.",
"j.{ [ e.<.k.K.U.U.(.Y.K.~.).~.(.^.' > b.{.Q.a.m.1.i.| [ a.K K N b I *.2.m.8.K.y.b.>.j.9.+.a ;.Z.D.P.8.2.s.k.V.m.b.V././.V.R { P.",
"<./ { V.U.U.U.V.~._._.U.~.~._.{.!.V.K g { N / ] T U w.' R |  ./ *.a.<.k.U.9.U.z.h.<.=.s.s.d X.d.j.H.m.9.l.h.b.V.b.N.V.E.~.l N U.",
"R [ a.H.H.U.U.n.)._.{._.~.).^.).).U.e.U l g P *.q.e.k.*.g ] w.#.2.w.*.k.m.8.P.U.m.s.j.s.j.E M S.j.9.0.,.K.m.f.V.M.V.V.M.e.N { u.",
"j  ._.n.K.b.~.~.(.{.{.{.).Q.U._.{.{.} b ' q.b.B.t.U.m.U...U '  .w.R { z.z.s.l.U.H.y.! S.3.#.2 ,.l.j.d.X.1.b.a./.^.V.n.u.N e.U.b.",
"N 4 k.U.U.U.V.~.~._._..X{.U.Q./.Q.V.e.f.b.y.m.Y.^.T.P.E.R.R.x.B.v.i / U.m.H.V._.n.I r X.6.S.w s #.l.j.$.i.g.i.M./.{.a.R N } N.!.",
"V.K 4 U.E.n.b./.V.K.]._.{._.].).Q.U.[ n.Y.z.z.P.Y.{.^.^.^.M.v.B.T r y.V.z.K.U.a.i g / / { #.N s ( s.,.@.i.n.c.c.E.E.q.L { a.f.i.",
"n.Q.j w ~._.n.{..X/./.].U./.{./.U.B.I y.Y.I.T.T.H.~.{.{.{.Q.v.w.0 [ K.V.U.k.R w b k._.{.a. .L r j d.1.&.f.b.b.f.b.e.T v K.G.g.&.",
"g.m.U.t z K.{.{.U._.~..X).V./.K.m.v.R m.P.Y.).T.T.).^.^.Q.Q.Q.T K /.U.b.{ i i *.V.^.Y.U.K.!.M./ s B 1.&.n.N.M.M.u. ./ Q K.K.(.J.",
"g.i.G.f.2 & R XX_._.~././.).V.b.b.*.K U.Y.{.I.Y._._._.).Q.B.x.0 v.V.t.V s b s.U.m.m.(.J.U.!.n.b.f.t h s.f.b.V.M.p.! %.G.n.K.n.(.",
"n.K.(.V.a.s o K {.XX{.).V.].U.E.Q.p.>._.Y._.T._._.Y._..XQ.v.q.@ *.V.v.f. .t._.n.m.K.U.C.D./.n.U.U.M.k s i.W.W.M.e.K @.r.i.K.b.G.",
"V.c.(.{.b.*.4 4 s / .X).Q.).].b.*.a.P.U.U.Y._..X_._.V.n.p.y.N @ } k.2.2.b { _.H.l.U.H.j.Y.Y.H.U.m.U.V.T 1 [ x.u.T r.K.c.@.i.V.W.",
"(.g.b.~.~.p.z <.t.4 [ _.V././.B.[ h.U.Y.U.U.Y._.U.a.f.p.v.a.T g 2.8.=.>.r b z.H.m.H.P.D.Y.H.U.z.H.U.U.V. .q 0 z ! r.r.m.m.g.G.L."
};
