/* XPM */
static char *_0b49b9f8f4f403eb0ee1b2ebfb044b5Uo6N21YPo6cEVilJ[] = {
/* columns rows colors chars-per-pixel */
"64 64 167 2 ",
"   c #2266A6",
".  c #2468A7",
"X  c #266AAA",
"o  c #2B6EAD",
"O  c #2E70AE",
"+  c #3171AE",
"@  c #2D6FB1",
"#  c #306FB0",
"$  c #2E71B0",
"%  c #3474B3",
"&  c #3977B5",
"*  c #3B79B7",
"=  c #3777B8",
"-  c #3D7BB9",
";  c #417BB7",
":  c #427EBC",
">  c #487FBD",
",  c #4580BD",
"<  c #4480BD",
"1  c #4780BC",
"2  c #4681BC",
"3  c #4680BD",
"4  c #4781BD",
"5  c #4480BE",
"6  c #4580BE",
"7  c #4481BE",
"8  c #4581BE",
"9  c #4480BF",
"0  c #4580BF",
"q  c #4581BF",
"w  c #4680BE",
"e  c #4780BE",
"r  c #4681BE",
"t  c #4781BE",
"y  c #4680BF",
"u  c #4681BF",
"i  c #4781BF",
"p  c #4782BE",
"a  c #4782BF",
"s  c #4681BE",
"d  c #4881BD",
"f  c #4880BE",
"g  c #4881BF",
"h  c #4981BF",
"j  c #4A81BE",
"k  c #4882BE",
"l  c #4882BF",
"z  c #4982BF",
"x  c #4883BF",
"c  c #4983BF",
"v  c #4A82BE",
"b  c #4B82BE",
"n  c #4B82BF",
"m  c #4A83BF",
"M  c #4C83BF",
"N  c #4B84BF",
"B  c #4982BE",
"V  c #4581C0",
"C  c #4581C1",
"Z  c #4781C0",
"A  c #4682C0",
"S  c #4782C0",
"D  c #4783C0",
"F  c #4783C1",
"G  c #4783C2",
"H  c #4682C0",
"J  c #4981C0",
"K  c #4882C0",
"L  c #4982C0",
"P  c #4883C0",
"I  c #4983C0",
"U  c #4882C1",
"Y  c #4883C1",
"T  c #4983C1",
"R  c #4A83C0",
"E  c #4B82C1",
"W  c #4A83C1",
"Q  c #4B83C1",
"!  c #4983C2",
"~  c #4A83C2",
"^  c #4C83C0",
"/  c #4984C0",
"(  c #4984C1",
")  c #4A84C0",
"_  c #4B84C0",
"`  c #4A84C1",
"'  c #4B84C1",
"]  c #4B85C1",
"[  c #4A84C2",
"{  c #4B84C2",
"}  c #4A85C2",
"|  c #4B85C2",
" . c #4A85C3",
".. c #4B86C3",
"X. c #4C84C0",
"o. c #4C85C0",
"O. c #4C84C1",
"+. c #4D84C1",
"@. c #4C85C1",
"#. c #4E85C0",
"$. c #4D86C1",
"%. c #4E86C1",
"&. c #4C84C2",
"*. c #4D84C2",
"=. c #4C85C2",
"-. c #4D85C2",
";. c #4C84C3",
":. c #4C85C3",
">. c #4F85C3",
",. c #4D86C2",
"<. c #4D86C3",
"1. c #4D87C3",
"2. c #4E86C2",
"3. c #4E87C2",
"4. c #4E86C3",
"5. c #4E87C3",
"6. c #4F87C3",
"7. c #4C86C4",
"8. c #4D86C4",
"9. c #4D87C4",
"0. c #4C87C5",
"q. c #4D87C5",
"w. c #4F87C4",
"e. c #4B84C1",
"r. c #4E88C4",
"t. c #4E88C5",
"y. c #4F88C6",
"u. c #4F88C5",
"i. c #5086C1",
"p. c #5187C2",
"a. c #5087C3",
"s. c #5287C2",
"d. c #5287C3",
"f. c #5187C4",
"g. c #5087C2",
"h. c #5188C2",
"j. c #5288C2",
"k. c #5288C3",
"l. c #5188C4",
"z. c #5189C5",
"x. c #5388C4",
"c. c #5289C4",
"v. c #5289C5",
"b. c #5389C5",
"n. c #528AC4",
"m. c #538AC5",
"M. c #5088C6",
"N. c #5089C6",
"B. c #528AC7",
"V. c #558BC5",
"C. c #568CC6",
"Z. c #568CC7",
"A. c #5389C5",
"S. c #588DC6",
"D. c #598CC6",
"F. c #558BC8",
"G. c #558DC8",
"H. c #568CC8",
"J. c #578DC9",
"K. c #558CC9",
"L. c #598EC8",
"P. c #588EC9",
"I. c #5A8FC9",
"U. c #5B91CA",
"Y. c #5D91CB",
"T. c #5C91CA",
"R. c #6192CA",
/* pixels */
": - : * J J : - [ [ G 7 Z m.r.Z - - 9 0.y.G - = % - 7 - & & % % % - - - : < : 2 2 N j [ a : a [ x a G [ m.Z.U.S.S.Z.[ j a : a : ",
"m.6.J J 7.K.m.Z 7 : C [ [ 7 - * - - = = % $ % % - - - a : j J J Z [ [ j j a ; : : a j [ [ r.[ a Z [ a < a : - & * - - - - a 6.m.",
"a.b.a.6. .Z * - : : - $ o o = 9 [ r. .: - 7 7 7 : j a a M 6.7.J a 7 : a < < < - - - a a a 2 j M [ 6.6.N 7 - * - - [ [ 6.[ j : : ",
"& - - : - % = - - - G [ C 0. .- - - Z m. .r.[ a j a.a.h.^ : J ^ a : : : : - < x a [ N : * & - - - * % * : : : a 7 : : : j - - - ",
"J - : C - 7 7 - - a : a G G - - - * : * : % & - - * & ; : ; f > j 6.j j N N < < a j j N j : & % % a j [ j 6.[ [ J - % % % - : : ",
"Z : 7 G r.r.6.r.7.r.r.7.r.r.P.Y.I.b.7.a : : : : : % % : : f ;.E j 6.[ j N h.M : : % * - - : - : r.M h.a.N a j : : - * - 7 Z r.r.",
"[ Z 7 [ 6.6.[ [ Z : : : : : a a : - : * : : a.S.a.m.6.^ : : % % & : ^ 6.: : a < * 7 [ N 6.h.b.K.N 6.a.a.r.[ : : : 2 a N J [ a [ ",
"C 7 : * % % + % * * = * - : * * : : : j a.^ j > ^ : : : - & & : : : % ; ; - - - : 6.[ : - - a : N : & & a h.h.B.K.U.Z.[ Z Z 7 : ",
"- - % % : : 6.d.6.[ ^ > J 6.a.M M b.D.F.a.^ ; : > f.J.d.b.R.R.d.^ : : - : : a M x.a.> M M N a a a 6.6.[ h.B.S.S.S.h.M a a 7 : Z ",
": j : - & & : ; - : M M a.j : : j j j > ^ > : : * : > : i.i.: : : > : > : : - - ; & - : : a j a & & - - : a 2 : * & : : - % % * ",
"a : a a : ^ x.i.D.D.^ & % : : - & - j M 6.j 6.^ ^ a.f : : * & % # @ & - : - : : : % o X   o : 6.6.6.6.J N 2 N x a : - % % % = - ",
"[ m.b.b.S.R.R.x.M M j a.i.M ; ; & : j : j 6.a.j J f : > > * : j : 6.d.b.b.m.6.a J j 6.: N K.r.: : j j m.a 7 - % % % a r.B.r.r.0.",
": : : a > : ; : * : : > > ; : > a 6.M M M : j > > ^ ^ f : : - : b.I.J.a.^ ^ m.a.6.Z.U.I.U.D.j a : : : - : < - x r.N 6.6.6.N [ a ",
": : - * % & ; > ^ > % & * : : > j : + X # % % & * - : : [ h.a.b.b.^ : * - - - a J : * & : : j h.6.N < ; : x r.r.n.h.: % % % - - ",
"6.j : a C C % & & * : : : > : > M j j h.6.a 7.I.F.a.J : % % O X .   . % - - : : a - a 6.m. .: % * % % - - - - + & - : j a [ h.r.",
"- : : : > * > : * : - : - - - : - : [ a.a.b.m.a J b.a.7.a - % & & - : C & % % % - [ m.j : : # o X % * % & * O O X O - a : : * % ",
"% & : : : 6.J J J h.m.j J : C 7.a.: - = % % % % $ % - - [ B.B.G.K.Z.m.r.Z.h.B.B.6.2 - - : a [ [ x 7 : % O o O % O % a G a - % * ",
": j J b.D.b.b.m.U.U.I.U.b.7.;.B.b.f : - @ @ @ % $ $ $ $ - x G B.U.I.N r.r.N x 7 : * * % * : [ 6.m.r.[ [ N [ [ r.G...N : - % $ % ",
": a j ; & - % # + + * 2 j : Z - % % = : C : Z Z 0.B.P.G.G - - : : - - a < < G B.6.a 6.r.a C Z 7 j M r.m.Z.V.V.I.G.h.- * - C Z : ",
"^ [ a : : - - : * % = = & : : - C ~ 7.7.K.K.7.C : - = - : G 0.C * = % % $ = % + % - 7 a Z 7 7 - * : - - ; : j 2 < 2 2 x Z Z  .7 ",
"j j a : - - : - 7 7 G - - Z  . .y.K.K.U.P.m.K.U.B.u.x G [ [ N : - 7 - 7 - % & * : a a : - Z 7 7 7 * % = - - & % * * j M J [ [ N ",
"j j : : : 7.7.7.B.B.r.G Z - G r.[  .G C - C 7 : G 7 n.U.Z.h.: 2 r.j 7 - - ; < 2 a : : a a - - 7 : Z x a a a a a : * * - Z j M j ",
": : j 6.7.F.a.~ : - : G G r.m. .- = $ = - = $ $ o o $ % % % + & % & ; : ; ; 2 j 2 a : : - - - % - - - * * - : : - a : - - - - - ",
"* - : : : - - Z G C C : = % O $ - - G G 9 : - $ $ % % % % * & % & ; & ; * * % + + % * [ [ J 7 : C : C 7 < : G 7 : - : : : a : : ",
": : : - : : : - - : : : Z - - 7 G G G 0.K.G.B.K.K.K.0.G : & + + + & & : x.x.M r.B.N n.r.N < : 7 : - - : a J m.h.b.h.r.7.[ a [ a ",
"a [ j a : - : : - - - - : [ G G = % % = 9 - - - = = = $ % - & & ; ; j > ; : j 6.- - - - = 7 [ [ G [ N J 7 a N a.N 6.j 6.Z a : : ",
"6.m.K.b.6.^  .r.G : G  . . .7.m.G.P.G.B.0.G : % $ * : 7 : : j 6.M M : : - - * * + O O = 7 [ r.r.r.a 6.N [ G 7 - % % % * - : : G ",
"- * - j a a Z * = : : C Z Z : Z r.....G C - C - - - 7 [ 6.M j : M b : > : a 7 < x x 2 < N < * * : x j : : a : - 7 a : 7.h.6.M : ",
": : - - 7 - * - - - * - - - = = + O $ % * C y.m.P.0.2 j : M ^ > j 6.j J a : : : * : a 6.N a : : * % % & * - a j j a : - % % : - ",
"- J G - 7 G x G G G [ 6.G 7 : : 7 0.r.G  .y. .- % $ * % + & - : f j ^ a.> j h.h.6.a a - - a : : & & : N a.m.a j 6.j j : - * * - ",
"r.m.Z Z : Z m.m.B. .Z N : Z 7 - [ 6.j r.y.r. .Z G r.[ j a a : J J : * > 6.M 2 a j 2 - * : : < N [ r.N r.b.h.6.Z : - : - * 7 ~  .",
"- : C a Z Z 7 - - * = % * - : ~ r.N 7 - - - : - 7 [ a.M j : * % @ % * : : : j : : : * a 6.j a N B.h.M j : : j 6.a Z [ r.r.6.Z Z ",
"a G 7 - % % % & - : * % o % % % $ $ : C - 9 : C J f J a a.a.M 6.d.^ f > % % * * - ; 6.m.j : : ; : - j J : - a h.U.U.U.I.x.j 7 a ",
"* 7 - j : : : j m.a.^ 6.a.m.r.7 - - % $ - = - : C : - Z a.M x.R.D.a.^ E C > : J j a j : a N a.h.h.J : a J j [ 6.h.M 1 ; 1 [ 7 - ",
"% % - - - - % & * % - - o % - - = $ $ $ $ = * : * = - a j : : - & % * * : : : * * - - % + % o + : j - - - : : : a : 2 * - * % % ",
"7 G [ 6.h.a.N j N - $ % * a 6.1  .r.y.0.C C : - * : a J : : : : > : ; : J j J > : : : - % % o * 7 j [ m.r.h.M : a - - - : 7 7 : ",
"r.7 a Z j h.h.a : % o % % $ % = - : J [ b.I.b.6.[  .[ Z 6.J J : : j 6.M : ; - 1 j 7 7 [ m.h.b.b.[ a a a j M j a - * * - a h.x.B.",
"7 7 - - - : - : : : : 7 - x [ [ 7 * = % :  .[ : : * - [ [ : : : : - : ; 2 a : : a [ : : J 6.7.J a [ j : - * : : N N N N : : : ; ",
"a N J j : : - - - a  .m.[ r.[ [ 7 : % % * % % : 7.m.m. .j a j a.N j : - * ; - : : : a [ j [ ^ 6.j 1 : ; - : j 2 < * * - = % * = ",
": - - : j a.M : : : 7 * % % * * - : - - = % = - * - : : : : j : - : ; ; & + - j N : a j : a ; : : : ; : : 2 a - - [ N 7 - - * 7 ",
"* = < N m.6.: M j : < : 7 : - Z - a r.[ [ N G G a - - a - - - ; : : a j a.6.j : & * - : j : % & - - a a N j - - - - - - 2 N r.N ",
": a M N N * + + * : : : : Z [ 7 - - - G a [ m.r.: * : : a M M M 6.h.b.a.1 : - : a a - * & : : : j j : j N : - - - - : - - < a - ",
"Z.h.j & % * : N [ r.K.0. .N [ [ G 7 Z r.m.Z : - : : - : : : : : j j M j 2 : : : : - : - - - - : * - - - : Z 6.[ [ [ [ r.[ 6.r.Z.",
": - - * - : j a a [ a [ Z 7 - C G [ ..7 - * % = - : a : : : : - - : 1 a 2 a 6.N : 2 a j Z 6.7.: : - a [ Z a N j [ a 2 : 7 : 7 a ",
"- : a M j 1 2 ; - - * - : : x : - % o o = : G 0.a - a j j [ j 2 - : : 2 M a.6.M j a M m.U.U.I.I.a.6.J 7.j - % % % & & & * - : - ",
"M M a.N 2 2 : - - 7 a - * = - - x G C [ G 7 - - < a : - a [ r.2 j : : : & & & % * : - % & % : J ^ j : - % - a 6.a.a.6.^ a J 6.a.",
"a j 2 ; & & 2 M N * O O % % = - - < x x : - - = - - - - : - * = - - - * - ; : j M N 7 - % % & & & : : - - - * : : ; : ^ M M : : ",
": - - 2 j < : j h.r.B...G 7 7 x r.x ..r.B.U.P.P.6.2 a : 2 - * : : a j 6.M M j [ j : : : : : Z * - Z C a j : M x.a.b.D.^ * - : : ",
": ; - + + ; x.M 1 M a.M h.M a 2 ; : a : j : - : - - - ; * % % - : ^ > j : ; : : ; - 7 G B.Z...G Z Z r.m.b.D.R.R.V.M j a 6.a.^ j ",
"- - : ; : : j : + o + % % * ; - - : ; : - - : a : : : & % : M h.b.j & & : - - - 2 [ [ x : - 7 G Z a : : j > ; ; ; ; : : : : : - ",
"M r.M h.a.> : : - ; 2 : j a ; j > : a j b M M h.b.b.M M N 6.a.M j j a.a.j ; - - a J G G x x C : - - - - - % & ; > j : : : ; : J ",
"h.a.N j > ; : - + & & ; 1 M j M 6.^ 6.^ ; : j M M > 2 1 1 j : - : - ; : ; : j j 6.[ 7 - - : - a : : : : : [ : & & - > ^ a.a.M a.",
"j 1 j j j N M 2 ; : : 1 2 - ; : : > : : ; - & - a : - & % - : 6.> % & : : j j M : - - % % % * - - : : : a : : : : : : : ; - : : ",
": 1 2 j j m.a.V.R.D.V.x.6.2 - & : j j M : : - - : ; * - a ; - & : : j : : : : j : : - - - 7 G G a - - : : j a.M J ^ : : : : * * ",
"j a 1 M j j j 2 1 a.M > ; ; ; : j j j > ; j j 6.a.M M [ a [ 7 : : : - - - - : - : 6.x.Z.m.[ a Z a j j J b.x.x.M 6.6.J [ 6.a.> : ",
"- - & + % % % - - * % & - a j j a ; * - : j j : & % : 2 : : : 7 J 6.a j : a m.r.a : : : 7 : : : a : a j : * - % % & : J ^ : : : ",
": : a j a a 6.2 ; 1 j j : : j j & % & : : : ^ : a : - - a a J 7.6.b.I.a.7.7.m.6.7 - - = - 7 a j : 6.7.J : - - - : * - - * % - : ",
"j a.h.M M J a.6.1 : : - : - : j 6.b.6.: : : - : a J J 6.j j a * * & : Z : Z = $ - - 7 Z [ a a : : : - % = = - : - * - * * - - : ",
": - : - & - : - : : : j : : a - - a a : : 7.7.a : : - & % * - : : : : - : - - : - - - - : - - * * * : * * C r. . .Z * % * - 7 [ ",
": ; : : : & * 7 j h.b.a.J 6.K.m.[ J : Z ^ m.b.J : * * - & * - : Z [ - : Z  .~ ~ [ [ r.6.a 7 [ 6.a G 7.m.K.K.K.r.J C a [ h.b.Z.h.",
"M x.^ ; ; : a j N j a [ J [ J * * - : - Z - $ % = : : * - [ [ m.m.[ G Z Z m.m.m.m.[ [ [ 7 7 : C a 7 [ [ 7 * = - Z N r.N r.N ; 2 ",
"% * * : j a j [ a - - - : - % = - - - C - - Z  .7.7.r.[ N [ a - - 7 G Z Z - - % % * * % - : 7 : - 7 - % = 7 [ 7 - * : - < : j ; ",
": : > > a M j - & * = - Z 7 [ 7.y.Z - C  . .7.y.r.6.[ J a 7 G Z G 7 - % % % * - : a J Z : - - 7 7 - * * : = % $ % % = - - : a - ",
": : * : - - : a Z : - : C 7.7.r.B.y.r.Z C r.6.6.6.a : : 7 - * * - - [ a - - : J m.j : j a Z 7 - - 7 Z  .0.7 : < : 7 [ 6.: * * - "
};
