/* XPM */
static char *_eea881c87c04de3ab6790c15412d067vtPVs7C0F79ycfT8[] = {
/* columns rows colors chars-per-pixel */
"64 64 131 2 ",
"   c None",
".  c #000000",
"X  c #0B0B0B",
"o  c #151515",
"O  c #1A1A1A",
"+  c #242424",
"@  c #2E2E2E",
"#  c #333333",
"$  c #454545",
"%  c #4C4C4C",
"&  c #515151",
"*  c #535B5F",
"=  c #5C5C5C",
"-  c #4C5960",
";  c #52626A",
":  c #5A656B",
">  c #4E6775",
",  c #4F6876",
"<  c #566771",
"1  c #586973",
"2  c #536D7C",
"3  c #56707E",
"4  c #5F727C",
"5  c #626262",
"6  c #666C6F",
"7  c #6B6D6E",
"8  c #62757F",
"9  c #747474",
"0  c gray48",
"q  c #557181",
"w  c #597584",
"e  c #5A7788",
"r  c #5E7C8E",
"t  c #5F7F90",
"y  c #657984",
"u  c #697E89",
"i  c #607F91",
"p  c #7D8386",
"a  c #79848A",
"s  c #638293",
"d  c #698697",
"f  c #6A8799",
"g  c #6D8A9B",
"h  c #748B97",
"j  c #738D9C",
"k  c #79909D",
"l  c #718FA1",
"z  c #7593A4",
"x  c #7B95A5",
"c  c #7F98A7",
"v  c #7997A8",
"b  c #7E9BAC",
"n  c #888888",
"m  c #879196",
"M  c #949596",
"N  c #999999",
"B  c #8199A7",
"V  c #839EAC",
"C  c #889FAD",
"Z  c #939EA4",
"A  c #819FB0",
"S  c #86A0AE",
"D  c #8AA1AE",
"F  c #92A2AA",
"G  c #85A2B2",
"H  c #8AA5B4",
"J  c #8AA7B8",
"K  c #8EABBB",
"L  c #91A6B3",
"P  c #95A9B5",
"I  c #9BA9B2",
"U  c #91AEBE",
"Y  c #9BADB8",
"T  c #9EB1BC",
"R  c #A4A4A4",
"E  c #ACACAC",
"W  c #A2B4BE",
"Q  c #B6B6B6",
"!  c gray74",
"~  c #94B1C1",
"^  c #99B4C3",
"/  c #A5B7C1",
"(  c #A9BAC3",
")  c #A4BCCA",
"_  c #B3C2CA",
"`  c #B4C8D3",
"'  c #BCCBD4",
"]  c #BCCED8",
"[  c #C1C1C1",
"{  c #CACACB",
"}  c #C3CFD5",
"|  c #C5D0D7",
" . c #C4D4DC",
".. c #CAD4DA",
"X. c #CFD8DD",
"o. c #D5D5D5",
"O. c #DADADA",
"+. c #D3DDE2",
"@. c #DBE2E6",
"#. c #D7E2E8",
"$. c #E4E4E4",
"%. c #E1E7EA",
"&. c #E2E8EB",
"*. c #E1E9ED",
"=. c #E2EAEE",
"-. c #E6EBEE",
";. c #E7EBEE",
":. c gray92",
">. c #EBEFF1",
",. c #ECF0F2",
"<. c #EDF0F2",
"1. c #EEF1F3",
"2. c gray94",
"3. c #F1F1F1",
"4. c #F0F3F5",
"5. c #F1F4F5",
"6. c #F3F6F7",
"7. c #F4F4F4",
"8. c gray96",
"9. c #F6F6F6",
"0. c gray97",
"q. c #F4F6F8",
"w. c #F9FAFA",
"e. c #F9FBFB",
"r. c #FBFBFB",
"t. c #FBFBFC",
"y. c #FBFCFC",
"u. c #FCFDFD",
"i. c #FDFEFE",
"p. c #FEFEFE",
"a. c white",
/* pixels */
"                                                                                                                                ",
"                                                                                                                                ",
"                                                                                                                                ",
"                                                                                                                                ",
"                                                                                                                                ",
"                                                                                                                                ",
"                                                                                                                                ",
"                                                                                                                                ",
"                                                                                                                                ",
"                                                                                > >                                             ",
"                                                                          > > , > >                                             ",
"                                                                      > > > > > >                                               ",
"                                                                  > > > > > > > >                                               ",
"                                                              > > > > > > > > > >                                               ",
"                                                          > > > > > > > > > > > >                                               ",
"                                                      > > > > > > > > > > , > > >                                               ",
"                                                    > > > > > > > > > > > > > > >                                 t             ",
"                                                > > > > > > > > > > , > > > > > >                               s t             ",
"                                              > > > > > > > > > > > > > > > > > > >                         i i r               ",
"                                          > > > > > > > > > > > > > > > > > > > > >                     i i i i s               ",
"                                        > > > > > > > > > > > > > > > > > > > > > >                   i i i i i                 ",
"        i i r i s r i i i i i t i i t r r r r r r r r r t r t r i i r i t t t i s t i i i i i i i i i i i i i t                 ",
"        t e s t i i i t s C W T B i s i i i i i t d L / Y j t i i i i i i i i i i i i i i i i i i t i i i i i                   ",
"        e q i i i i i P >.p.p.p.p.%.B i i i i s _ r.p.p.p.p.X.g i i i i i i i i i i i i i i i i s t i i i i t                   ",
"      t q e t t i i / p.p.p.o.Q O.p.p.H i i s X.p.8.[ ! 3.p.p.<.j t i i i i i i t t t i i i i i i i t s i t                     ",
"      t 2 r s t i x p.p.:.$ . # 7 5 3.8.g s ( p.Q O . = 5 N p.p.X.i i i i i i i s i i i i i i i i i t i i i                     ",
"      i e s i i s | p.p.$ . . E p.O.= p.( s <.O.X . X p.p.n Q p.p.c i i i i i i i i i i i i i i i i i i i i t                   ",
"      i i i i i t 1.p.o.. . . $ 8.p.@ $.+.x p.9 . . . N p.{ $ p.p.( i i i i i i i i i i i i i i i i i i i i i t                 ",
"      t i i i i i t.p.Q . . . . O # . [ &.D p.& . . . . # O + p.p._ i i s i i i i i i i i i i i i i i i i i i i i               ",
"      t i i i i i <.p.O.. . . . . . . $.+.x p.0 . . . . . . % p.p./ i i t t i i i i i i i i i i i i i t i i i i i i             ",
"      t i i i i i } p.p.% . . . . . = p.( i <.O.X . . . . . ! p.p.x i i i i i i i i i i i i i i i i i     t i i i i             ",
"      i i i i i i x r.p.3.& . . . = 8.5.f s W p.[ + . . o R p.p.X.s i i i i i i i i i i i i i i i i i           i t i           ",
"      t i i i i i t T p.p.p.$.[ $.p.r.C i i s | p.p.{ { 8.p.p.&.g t i i i i i i i i i i i i s t t i i               i i         ",
"        i i i i i t s D ;.p.p.p.p.@.x i i t t s ( q.p.p.p.p.| f i i i i i i i i i i i i i i i i i i i                           ",
"        i i i i i i i i s c P P x i i i i i t i i s C Y L g t t i i i i i i i i i i i i i i i i i i i                           ",
"        i i i i i i i i t t t s i i i i i i t s i s i i t s s s i i i i i i i i i i i i i i i i i i t                           ",
"          i i i i t s f z z b G H J K K U U U K K H G G b z g s t t t s i i i i i i i i i i i i i i i                           ",
"          s s l b J U ~ ~ ~ ~ ~ ~ ~ ~ ~ ~ ~ ~ ~ ~ ~ ~ ~ ~ ~ ~ ~ K G v g i i i i i i i i i i i i i i                             ",
"          b ~ ~ U V ~ ~ ~ ~ ~ ~ ~ ~ ~ ~ ~ ~ ~ ~ ~ ~ ~ ~ ~ ~ ~ ~ ~ K H ~ K b g s i i i i i i i i i i                             ",
"            U ~ ~ V u ~ ~ ) ~ ~ ~ ~ ~ ~ ~ ~ ~ ~ ~ ~ ~ ~ ~ ~ ~ ~ V u ~ ~ ~ ~ ~ K z i i i t s i i i i                             ",
"              ~ ~ ~ H ; F e.^ ` ~ ~ ~ ~ ~ ~ ~ ~ ~ ~ ~ _ ~ #.' 4 y ~ ~ ~ ~ ~ ~ ~ ~ b t t i i i i i                               ",
"              J ~ ~ ~ ~ u 6 m 8.^ -.~ | ~ ' ~ ] ~ +.) =.' a : V ~ ~ ~ ~ ~ ~ ~ ~ ~ ~ z t i i i i t                               ",
"                G ~ ~ ~ ~ ~ h - ; 0 a [ I O.T { Z M 6 * ; V ~ ~ ~ ~ ~ ~ ~ ~ ~ ~ ~ ~ U s i i i i i                               ",
"                3 J ~ ~ ~ ~ ~ ~ ^ J h 8 < ; ; 1 y k U ~ U ~ ~ ~ ~ ~ ~ ~ ~ ~ ~ ~ ~ ~ ~ A i i i i i                               ",
"                > 3 K ~ ~ ~ ~ ~ ~ ~ ~ ~ ~ ~ ~ ~ ~ ~ ~ ~ ~ ~ ~ ~ ~ ~ ~ ~ ~ ~ ~ ~ ~ ~ ~ ~ s s i i t                               ",
"                , > 3 H ~ ~ ~ ~ ~ ~ ~ ~ ~ ~ ~ ~ ~ ~ ~ ~ ~ ~ ~ ~ ~ ~ ~ ~ ~ ~ ~ ~ ~ ~ ~ ~ v i i i i                               ",
"                  > , , b ~ ~ ~ ~ ~ ~ ~ ~ ~ ~ ~ ~ ~ ~ ~ ~ ~ ~ ~ ~ ~ ~ ~ ~ ~ ~ ~ ~ ~ ~ ~ A i i i i                               ",
"                  > > > > x U ~ ~ ~ ~ ~ ~ ~ ~ ~ ~ ~ ~ ~ ~ ~ ~ ~ ~ ~ ~ ~ ~ ~ ~ ~ ~ ~ ~ J   i i i i                               ",
"                  , > > >     K ~ ~ ~ ~ ~ ~ ~ ~ ~ ~ ~ ~ ~ ~ ~ ~ ~ ~ ~ ~ ~ ~ ~ ~ ~ U       s t t                                 ",
"                    > > >         K ~ ~ ~ ~ ~ ~ ~ ~ ~ ~ ~ ~ ~ ~ ~ ~ ~ ~ ~ ~ ~ U             i t                                 ",
"                    > > >             K U ~ ~ ~ ~ ~ ~ ~ ~ ~ ~ ~ ~ ~ ~ ~ K K                 s t                                 ",
"                      > >                   K K K ~ ~ ~ ~ ~ ~ U U K                         r s                                 ",
"                      > >                                                                   i                                   ",
"                        >                                                                   t                                   ",
"                                                                                                                                ",
"                                                                                                                                ",
"                                                                                                                                ",
"                                                                                                                                ",
"                                                                                                                                ",
"                                                                                                                                ",
"                                                                                                                                ",
"                                                                                                                                ",
"                                                                                                                                ",
"                                                                                                                                "
};
